<svg width="122" height="45" viewBox="0 0 122 45" fill="none" xmlns="http://www.w3.org/2000/svg">
<g id="Group">
<path id="Vector" d="M23.2717 17.0041C22.7288 16.7905 22.0574 16.5911 21.2431 16.4202C21.7288 16.2635 22.1431 16.0926 22.486 15.9075C24.7432 14.7112 25.886 13.0022 25.886 10.8091C25.886 8.28832 24.4289 6.43692 21.5574 5.31185C19.7002 4.58553 16.2145 4.22949 10.9287 4.22949H0.742866V5.82454L1.32859 5.95271C2.15717 6.13785 2.6286 6.66479 2.84289 7.60472C2.88575 7.84683 2.97146 8.57315 2.97146 10.7806V15.11C2.97146 21.305 2.84289 25.1645 2.57146 26.5744C2.35717 27.7564 1.72859 28.5255 0.55715 28.7533C0.414291 28.7818 0 28.8245 0 28.8245V30.4053C0 30.4053 13.343 30.4766 14.8145 30.4766C18.4288 30.4766 21.1431 30.092 23.086 29.3087C26.4432 27.9273 28.1575 25.8623 28.1575 23.1422C28.1575 20.4221 26.5146 18.3428 23.2717 17.0183V17.0041ZM20.3145 10.8803C20.3145 12.2759 19.8574 13.3013 18.9002 14.0276C17.6288 14.9818 15.2145 15.466 11.743 15.466H7.54295V6.50813H11.3287C14.443 6.50813 16.6145 6.70751 17.7574 7.09203C19.5002 7.70441 20.3002 8.9007 20.3002 10.866L20.3145 10.8803ZM7.54295 17.7731H11.2573C15.7002 17.7731 18.6859 18.1861 20.1002 19.0122C21.7717 19.9663 22.586 21.3335 22.586 23.1849C22.586 25.0363 21.8145 26.2611 20.2145 27.1725C19.0431 27.8419 16.9145 28.1837 13.8716 28.1837C11.643 28.1837 10.0715 28.1267 9.2144 27.9985C8.24296 27.8704 7.80009 27.4004 7.70009 26.4035C7.60009 25.3496 7.55723 23.2988 7.55723 20.3224V17.7731H7.54295Z" fill="black"/>
<path id="Vector_2" d="M43.1146 8.5166C41.5146 8.5166 39.986 9.08626 38.5574 10.1971C37.8859 10.724 37.2717 11.3364 36.7288 12.0342L36.8574 8.58781L35.8145 8.97233C34.4573 9.47078 32.8716 9.86954 31.0859 10.1544L30.4573 10.2541V11.7637L31.1144 11.8491C31.9573 11.9488 32.1145 12.3333 32.1716 12.7321C32.343 13.8572 32.4287 16.9191 32.4287 21.8466V23.0287C32.4287 25.82 32.1716 27.0875 31.9573 27.6572C31.7002 28.3123 31.2859 28.6541 30.5859 28.7395L29.9287 28.825V30.4058H39.0288V28.825L38.4002 28.7538C37.5859 28.6256 37.3431 28.2411 37.2288 27.942C36.9145 27.0733 36.7574 25.4212 36.7574 23.0429V19.9668C36.7574 17.7878 37.1288 16.0076 37.8574 14.6832C38.5145 13.4869 39.3145 12.903 40.3288 12.903C40.8003 12.903 41.2717 13.1593 41.7431 13.6863L42.586 14.6262L44.686 8.6875L43.7717 8.57357C43.5432 8.54508 43.3289 8.53084 43.1289 8.53084L43.1146 8.5166Z" fill="black"/>
<path id="Vector_3" d="M58.6148 4.71393L64.7291 7.36285C64.8577 7.43406 65.0149 7.47678 65.172 7.47678H65.5292L59.0862 0.142415C59.0005 0.056966 58.9005 0 58.7719 0H58.4005C58.2862 0 58.1576 0.056966 58.0862 0.142415L51.7861 7.47678H52.0433C52.1719 7.47678 52.3004 7.4483 52.4004 7.37709L58.5862 4.69969L58.6148 4.71393Z" fill="black"/>
<path id="Vector_4" d="M79.715 26.703C79.515 24.8231 79.4007 23.3847 79.3435 22.4447C79.2721 20.4367 79.2293 18.4144 79.2293 16.4348V9.21441C79.2293 6.7079 79.2721 4.21565 79.3721 1.76611L79.415 0.655273L78.3721 1.03979C76.9435 1.56673 75.4006 1.96549 73.7863 2.22184L73.1578 2.32153V3.87385L73.8578 3.91657C74.4721 3.9593 74.8863 4.18716 74.9435 5.21255C75.0863 7.83298 75.1721 12.2194 75.1721 18.272C75.1721 25.4782 74.5578 27.4578 74.1863 27.9989C73.9435 28.3692 73.5863 28.6825 73.072 28.768C72.9435 28.7965 72.5435 28.7965 72.5435 28.7965V30.3773H81.8293V28.7965C81.8293 28.7965 81.4293 28.7965 81.2864 28.768C80.7293 28.6825 80.0007 28.241 79.7007 26.6745L79.715 26.703Z" fill="black"/>
<path id="Vector_5" d="M103.687 21.4909C103.044 23.7268 101.987 25.4643 100.573 26.6463C99.144 27.8284 97.4725 28.398 95.4582 28.398C92.5868 28.398 90.6296 27.2872 89.4725 24.9943C88.6439 23.3566 88.2153 21.4482 88.2153 19.3405C88.2153 18.7708 88.2439 18.2723 88.2867 17.8309H105.658L105.544 16.9906C105.215 14.5838 104.001 12.533 101.901 10.8953C99.8297 9.28597 97.4154 8.45996 94.7011 8.45996C91.5011 8.45996 88.7296 9.55656 86.501 11.707C84.2581 13.8717 83.1152 16.5206 83.1152 19.611C83.1152 22.8723 84.2295 25.5925 86.4438 27.7287C88.6439 29.8507 91.4582 30.933 94.8154 30.933C97.5154 30.933 99.9011 30.1782 101.873 28.6686C103.858 27.159 105.187 25.094 105.816 22.5163L105.916 22.0891L103.987 20.3801L103.658 21.5194L103.687 21.4909ZM100.215 15.5522H88.801C89.7153 12.2909 91.6725 10.7101 94.7582 10.7101C96.444 10.7101 97.7583 11.2086 98.7583 12.2197C99.6154 13.0884 100.101 14.185 100.215 15.5522Z" fill="black"/>
<path id="Vector_6" d="M68.3296 24.6524C68.301 24.2821 68.301 22.4877 68.301 19.3261V14.4697C68.301 12.661 68.3439 11.066 68.4439 9.71305L68.5296 8.48828L67.401 8.98673C65.8867 9.65608 64.2867 10.1118 62.6724 10.3824L62.0438 10.4821V12.0487L62.7153 12.1199C63.4153 12.1911 63.7153 12.3762 63.7581 12.5044C63.8153 12.6468 63.9724 13.3731 63.9724 16.905V18.087C63.9724 21.6047 63.6438 24.0827 63.001 25.4356C62.6153 26.2617 61.9867 26.9025 61.0581 27.4152C60.1152 27.9279 59.0295 28.1985 57.8581 28.1985C55.7152 28.1985 54.2866 27.4579 53.5009 25.9341C52.8723 24.7093 52.5437 22.6728 52.5437 19.8672V14.4982C52.5437 12.6895 52.5866 11.0945 52.6866 9.74153L52.7723 8.48828L51.6294 9.01522C50.2865 9.6276 48.7008 10.0976 46.9151 10.3966L46.3008 10.4963V12.0487L46.9722 12.1199C47.7722 12.2053 48.0151 12.4047 48.0294 12.4617C48.0722 12.5898 48.2294 13.3019 48.2294 16.8908L48.1579 22.1743C48.1008 25.2078 48.9437 27.4722 50.6437 28.8963C52.2151 30.2208 54.3152 30.8901 56.9152 30.8901C60.0724 30.8901 62.5867 29.7508 64.401 27.5149C64.6867 28.5403 64.9724 29.3521 65.2582 29.9787L65.4582 30.4059H69.9868V28.8251C69.6153 28.7539 69.2868 28.5261 69.1011 28.1985C68.801 27.6573 68.4725 26.6319 68.3296 24.6524Z" fill="black"/>
<path id="Vector_7" d="M119.916 8.5166C118.316 8.5166 116.787 9.08626 115.359 10.1971C114.687 10.724 114.073 11.3364 113.53 12.0342L113.659 8.58781L112.616 8.97233C111.259 9.47078 109.673 9.86954 107.887 10.1544L107.259 10.2541V11.7637L107.916 11.8491C108.759 11.9488 108.916 12.3333 108.973 12.7321C109.144 13.8572 109.23 16.9191 109.23 21.8466V23.0287C109.23 25.82 108.973 27.0875 108.759 27.6572C108.501 28.3123 108.087 28.6541 107.387 28.7395L106.73 28.825V30.4058H115.83V28.8534L115.202 28.7538C114.387 28.6256 114.144 28.2411 114.03 27.942C113.716 27.0733 113.559 25.4212 113.559 23.0429V19.9668C113.559 17.7878 113.93 16.0076 114.659 14.6832C115.316 13.4869 116.116 12.903 117.13 12.903C117.602 12.903 118.073 13.1593 118.544 13.6863L119.387 14.6262L121.487 8.6875L120.573 8.57357C120.344 8.54508 120.13 8.53084 119.93 8.53084L119.916 8.5166Z" fill="black"/>
<g id="Group_2">
<path id="Vector_8" d="M45.0144 43.881C44.9286 43.2544 44.8858 42.2432 44.8858 40.8903V39.6513C44.8858 38.7541 44.8858 38.0277 44.9286 37.5008V37.1875L44.6572 37.3157C44.3143 37.4723 43.9143 37.5863 43.4429 37.6717L43.2858 37.7002V38.0847H43.4572C43.6143 38.1132 43.7143 38.1559 43.7429 38.2271C43.7572 38.2699 43.8143 38.512 43.8286 39.8364C43.3286 39.4092 42.7286 39.1955 42.0143 39.1955C41.1572 39.1955 40.4286 39.4661 39.8572 40.0216C39.2857 40.5627 39 41.2606 39 42.1008C39 42.9411 39.2857 43.5962 39.8429 44.1373C40.4 44.6785 41.1 44.9491 41.9429 44.9491C42.4429 44.9491 42.8715 44.8494 43.2143 44.6358C43.4572 44.4934 43.6858 44.2798 43.9001 44.0092C43.9572 44.3225 44.0286 44.5503 44.0858 44.707L44.1286 44.8209H45.4572V44.4222C45.4572 44.4222 45.3572 44.4222 45.3286 44.4222C45.2001 44.3937 45.0286 44.2798 44.9858 43.881H45.0144ZM40.3143 42.1151C40.3143 41.3603 40.4714 40.7764 40.7714 40.3776C41.0715 39.9931 41.5 39.8079 42.0572 39.8079C43.2286 39.8079 43.8001 40.5485 43.8001 42.0866C43.8001 42.7702 43.6572 43.3113 43.4001 43.7101C43.1 44.1516 42.6572 44.3652 42.0572 44.3652C41.4572 44.3652 40.9857 44.1089 40.6572 43.5819C40.4286 43.2116 40.3 42.7132 40.3 42.1151H40.3143Z" fill="black"/>
<path id="Vector_9" d="M54.7434 43.5814C54.472 43.1399 54.1005 42.442 53.6291 41.5306L51.6862 37.7139L49.6005 41.6445C49.0576 42.6557 48.6719 43.3535 48.429 43.6953C48.2005 44.0228 48.0005 44.3362 47.7147 44.4074C47.6862 44.4074 47.6147 44.4074 47.6147 44.4074V44.8061H49.7719V44.4074C49.7719 44.4074 49.6719 44.4074 49.6433 44.4074C49.2719 44.3219 49.2433 44.1083 49.2433 43.9944C49.2433 43.8662 49.3291 43.4959 49.9005 42.3708L50.2005 41.7869H52.4577L53.1577 43.1684C53.4434 43.7523 53.5148 44.0228 53.5148 44.1653C53.5148 44.2222 53.5148 44.3504 53.2862 44.3931C53.2577 44.3931 53.1434 44.4074 53.1434 44.4074V44.8061H55.6577V44.4074C55.5863 44.4074 55.5148 44.3789 55.4434 44.3504C55.2006 44.1937 54.9577 43.9374 54.7434 43.5671V43.5814ZM50.5291 41.2173L51.3719 39.665L52.1719 41.2173H50.5291Z" fill="black"/>
<path id="Vector_10" d="M65.8861 44.2361C65.8147 44.0082 65.7861 43.581 65.7861 42.9828V41.8293C65.7861 40.9748 65.6004 40.3339 65.2433 39.9209C64.8575 39.4794 64.2861 39.2515 63.5718 39.2515C62.6575 39.2515 62.0004 39.6218 61.5718 40.3481C61.4718 40.106 61.3575 39.9209 61.2146 39.7785C60.8432 39.4224 60.3289 39.2373 59.6718 39.2373C58.8718 39.2373 58.2432 39.5506 57.8289 40.163C57.8289 39.9494 57.8432 39.7642 57.8575 39.5791L57.886 39.2658L57.6003 39.3797C57.1432 39.5649 56.7717 39.693 56.486 39.7358L56.3289 39.7642V40.163H56.5003C56.6574 40.1915 56.7146 40.2484 56.7289 40.3909C56.7717 40.7184 56.8003 41.4875 56.8003 42.6695V42.9686C56.8003 43.5382 56.7717 43.937 56.7003 44.1506C56.6432 44.3215 56.486 44.4212 56.3003 44.4212V44.82H58.386V44.4212C58.386 44.4212 58.2717 44.4212 58.2289 44.4212C58.1003 44.4212 58.0432 44.35 58.0003 44.2361C57.9432 44.0224 57.9003 43.5952 57.9003 42.9686V42.4986C57.9003 41.6726 58.0003 41.0602 58.2003 40.6757C58.4432 40.1915 58.8432 39.9494 59.4289 39.9494C59.9718 39.9494 60.3146 40.1345 60.4861 40.5333C60.6432 40.8751 60.7146 41.4305 60.7146 42.1995V42.9828C60.7146 43.5667 60.6861 43.9655 60.6146 44.1791C60.5575 44.3927 60.4432 44.4354 60.3575 44.4497C60.3146 44.4497 60.2003 44.4497 60.2003 44.4497V44.8484H62.3432V44.4497C62.3432 44.4497 62.2289 44.4497 62.1861 44.4497C62.0575 44.4497 61.9718 44.3642 61.9289 44.2503C61.8718 44.1079 61.8146 43.7803 61.8146 42.9971V42.0998C61.8146 41.459 61.9289 40.9463 62.1432 40.5902C62.4004 40.163 62.7718 39.9636 63.2718 39.9636C63.6861 39.9636 64.0004 40.106 64.2147 40.3909C64.4432 40.6899 64.5575 41.1172 64.5575 41.6868V42.9971C64.5575 43.581 64.529 43.9797 64.4575 44.1933C64.4004 44.407 64.2861 44.4497 64.2004 44.4497C64.1575 44.4497 64.0432 44.4497 64.0432 44.4497V44.8484H66.2433V44.4497C66.2433 44.4497 66.129 44.4497 66.0861 44.4497C65.9576 44.4497 65.8861 44.3785 65.8433 44.2503L65.8861 44.2361Z" fill="black"/>
<path id="Vector_11" d="M69.6861 39.209C68.8289 39.209 68.1004 39.4938 67.5146 40.035C66.9289 40.5904 66.6289 41.274 66.6289 42.0715C66.6289 42.869 66.9289 43.5669 67.5146 44.1223C68.1004 44.6635 68.8289 44.9483 69.6861 44.9483C70.5432 44.9483 71.2718 44.6777 71.8575 44.1223C72.4575 43.5669 72.7576 42.8975 72.7576 42.1142C72.7576 41.331 72.4861 40.6474 71.929 40.1062C71.329 39.5081 70.5718 39.209 69.6718 39.209H69.6861ZM71.129 43.5954C70.8575 44.1081 70.3861 44.3644 69.6861 44.3644C68.9861 44.3644 68.5289 44.1081 68.2432 43.5954C68.0289 43.1824 67.9146 42.6697 67.9146 42.0858C67.9146 41.5019 68.0289 40.9892 68.2432 40.5762C68.5146 40.0635 68.9861 39.8071 69.6861 39.8071C70.3861 39.8071 70.8575 40.0635 71.129 40.5762C71.3433 40.9892 71.4575 41.5019 71.4575 42.1142C71.4575 42.6839 71.3433 43.1824 71.129 43.5954Z" fill="black"/>
<path id="Vector_12" d="M78.7151 43.3537C78.7151 43.254 78.7151 42.7982 78.7151 41.9865V40.7475C78.7151 40.2917 78.7151 39.8787 78.7579 39.5369L78.7865 39.2236L78.5008 39.3518C78.115 39.5227 77.7008 39.6366 77.2865 39.7078L77.1293 39.7363V40.1351H77.3007C77.4722 40.1778 77.5579 40.2205 77.5722 40.249C77.5722 40.2917 77.6293 40.4769 77.6293 41.3741V41.6732C77.6293 42.5704 77.5436 43.2112 77.3865 43.553C77.2865 43.7667 77.1293 43.9233 76.8865 44.0515C76.6436 44.1797 76.3722 44.2509 76.0722 44.2509C75.5293 44.2509 75.1579 44.0657 74.9579 43.667C74.8007 43.3537 74.715 42.8267 74.715 42.1147V40.7475C74.715 40.2917 74.715 39.8787 74.7579 39.5369L74.7864 39.2236L74.5007 39.3518C74.1579 39.5085 73.7436 39.6224 73.3007 39.7078L73.1436 39.7363V40.1351H73.315C73.515 40.1778 73.5864 40.2205 73.5864 40.2348C73.5864 40.2633 73.6436 40.4484 73.6436 41.3599V42.7128C73.615 43.4961 73.8293 44.0657 74.2579 44.436C74.6579 44.7778 75.2007 44.9487 75.8579 44.9487C76.6722 44.9487 77.315 44.6639 77.7722 44.08C77.8436 44.3363 77.915 44.5499 77.9865 44.7066L78.0436 44.8205H79.2008V44.4218C79.1008 44.4075 79.0151 44.3506 78.9722 44.2651C78.9008 44.1227 78.815 43.8664 78.7722 43.3537H78.7151Z" fill="black"/>
<path id="Vector_13" d="M47.6715 37.187C47.7572 37.13 47.6572 36.9449 47.5429 37.0161C45.8715 37.9418 46.0001 39.1808 46.2143 39.608C46.6858 40.5195 47.6572 40.1492 47.6858 39.5938C47.7144 39.2377 47.4429 38.9387 47.2001 38.7535C46.7572 38.3975 47.0001 37.5145 47.6572 37.2012L47.6715 37.187Z" fill="black"/>
<path id="Vector_14" d="M83.1576 39.2379C82.7433 39.2379 82.3576 39.3803 81.9862 39.6651C81.8147 39.7933 81.6576 39.9499 81.5147 40.1351L81.5433 39.2521L81.2719 39.3518C80.929 39.48 80.5147 39.5797 80.0576 39.6509L79.9004 39.6794V40.0639H80.0718C80.2861 40.1066 80.329 40.2063 80.3433 40.306C80.3861 40.5908 80.4147 41.3741 80.4147 42.6416V42.9407C80.4147 43.6527 80.3433 43.9803 80.3004 44.1227C80.2433 44.2936 80.129 44.379 79.9576 44.3933H79.7861V44.8205H82.1147V44.4218L81.9576 44.3933C81.7433 44.3648 81.6862 44.2651 81.6576 44.1797C81.5719 43.9518 81.529 43.5388 81.529 42.9264V42.1431C81.529 41.5877 81.629 41.132 81.8147 40.7902C81.9862 40.4911 82.1862 40.3345 82.4433 40.3345C82.5576 40.3345 82.6862 40.4057 82.8005 40.5338L83.0147 40.776L83.5576 39.2521L83.329 39.2236C83.329 39.2236 83.2147 39.2236 83.1576 39.2236V39.2379Z" fill="black"/>
</g>
</g>
</svg>
