<svg width="310" height="31" viewBox="0 0 310 31" fill="none" xmlns="http://www.w3.org/2000/svg">
<path d="M23.4454 17.1498C22.9028 16.936 22.2284 16.7374 21.4067 16.5618C21.899 16.4014 22.3137 16.2333 22.6548 16.0577C24.9299 14.8663 26.0849 13.1593 26.0849 10.9789C26.0849 8.46616 24.616 6.62556 21.7168 5.49905C19.837 4.76969 16.3331 4.41455 10.9999 4.41455H0.748053V6.00694L1.33719 6.13677C2.16664 6.32007 2.65113 6.84323 2.86043 7.7788C2.91082 8.01174 2.99221 8.73729 2.99221 10.9445V15.2596C2.99221 21.4267 2.85655 25.2722 2.59299 26.6812C2.37206 27.8612 1.74416 28.6288 0.562009 28.8464C0.422475 28.8732 0 28.9113 0 28.9113V30.4885C0 30.4885 13.4417 30.5648 14.9339 30.5648C18.5812 30.5648 21.3059 30.1868 23.2633 29.404C26.6508 28.0331 28.3679 25.9671 28.3679 23.2635C28.3679 20.5599 26.7128 18.4825 23.4454 17.1575V17.1498ZM20.4687 11.0514C20.4687 12.4414 20.0036 13.4686 19.0463 14.1827C17.7633 15.1374 15.337 15.6185 11.8293 15.6185H7.60456V6.70194H11.4185C14.5618 6.70194 16.7479 6.90051 17.9029 7.28619C19.6548 7.89718 20.4687 9.09243 20.4687 11.0476V11.0514ZM7.60456 17.9097H11.3448C15.8293 17.9097 18.8253 18.3222 20.2517 19.1394C21.9377 20.0864 22.7555 21.4458 22.7555 23.2903C22.7555 25.1347 21.9726 26.3567 20.3641 27.2579C19.1897 27.9261 17.0347 28.266 13.9649 28.266C11.713 28.266 10.1355 28.2049 9.27508 28.0865C8.30222 27.9605 7.84874 27.487 7.75572 26.5056C7.65882 25.4554 7.60843 23.4163 7.60843 20.453V17.9136L7.60456 17.9097Z" fill="black"/>
<path d="M43.4414 8.69141C41.829 8.69141 40.2825 9.25275 38.8446 10.3602C38.1663 10.8833 37.55 11.4943 36.9996 12.1893L37.1237 8.76396L36.0733 9.14583C34.7051 9.64226 33.1005 10.0394 31.3098 10.3258L30.678 10.4251V11.9296L31.3369 12.0098C32.1819 12.1129 32.3485 12.491 32.4067 12.8958C32.5733 14.0108 32.6586 17.0658 32.6586 21.9651V23.1451C32.6586 25.9289 32.3989 27.1852 32.1819 27.7504C31.9299 28.4072 31.5036 28.7394 30.8059 28.8273L30.1509 28.9113V30.4846H39.3252V28.9075L38.6973 28.8311C37.8795 28.6974 37.6392 28.3194 37.5229 28.0215C37.2051 27.1509 37.0423 25.5088 37.0423 23.1489V20.0901C37.0423 17.9173 37.4144 16.1455 38.1469 14.8242C38.8097 13.6328 39.6198 13.0523 40.6314 13.0523C41.1081 13.0523 41.5732 13.3082 42.0538 13.839L42.8988 14.7707L45.015 8.85179L44.0887 8.74105C43.8561 8.71432 43.6352 8.69904 43.4375 8.69904L43.4414 8.69141Z" fill="black"/>
<path d="M59.0576 4.90718L65.2204 7.5497C65.356 7.62225 65.5072 7.66426 65.6622 7.66426H66.0227L59.5421 0.351496C59.4646 0.263667 59.3483 0.210205 59.2282 0.210205H58.86C58.7359 0.210205 58.6235 0.263667 58.5421 0.355315L52.1973 7.66426H52.4647C52.5926 7.66426 52.7166 7.63371 52.829 7.57261L59.0615 4.91099L59.0576 4.90718Z" fill="black"/>
<path d="M80.3322 26.7957C80.1384 24.9169 80.0143 23.4887 79.964 22.5608C79.8903 20.5636 79.8516 18.5512 79.8516 16.5808V9.39019C79.8516 6.90041 79.9019 4.40682 79.9988 1.97432L80.0453 0.870728L78.9911 1.2526C77.5454 1.77575 75.995 2.1729 74.3749 2.43257L73.747 2.53567V4.07841L74.4485 4.12424C75.0609 4.16624 75.4834 4.39918 75.5454 5.41877C75.6927 8.02311 75.7702 12.3993 75.7702 18.429C75.7702 25.6081 75.1501 27.5785 74.7741 28.1208C74.5222 28.4912 74.1695 28.8043 73.6501 28.8922C73.5183 28.9151 73.1113 28.9189 73.1113 28.9189V30.496H82.4678V28.9189C82.4678 28.9189 82.0608 28.9113 81.9252 28.8922C81.3709 28.8005 80.6306 28.3614 80.3322 26.8072V26.7957Z" fill="black"/>
<path d="M104.479 21.6138C103.824 23.8401 102.766 25.5662 101.336 26.7423C99.902 27.9185 98.2198 28.4875 96.185 28.4875C93.2974 28.4875 91.3246 27.38 90.1579 25.0965C89.3169 23.4659 88.8905 21.568 88.8905 19.4601C88.8905 18.8988 88.9176 18.3947 88.968 17.9517H106.472L106.359 17.1154C106.034 14.7173 104.801 12.6743 102.693 11.0438C100.607 9.43609 98.1656 8.6189 95.4369 8.6189C92.2083 8.6189 89.4254 9.70722 87.1696 11.8495C84.9061 13.9994 83.7588 16.6496 83.7588 19.7198C83.7588 22.9618 84.8867 25.6807 87.1115 27.8077C89.3285 29.9271 92.1695 31.004 95.5493 31.004C98.2741 31.004 100.669 30.2479 102.666 28.7509C104.669 27.2502 106.007 25.1881 106.646 22.622L106.755 22.1905L104.817 20.4835L104.483 21.6138H104.479ZM100.976 15.6949H89.468C90.3866 12.4528 92.3595 10.8719 95.4757 10.8719C97.1772 10.8719 98.495 11.3645 99.5028 12.3803C100.363 13.2509 100.852 14.3393 100.976 15.6949Z" fill="black"/>
<path d="M158.134 26.7766C157.816 24.3136 157.653 20.3994 157.653 15.1488V10.3181C157.653 6.82787 157.704 4.0135 157.8 1.9476L157.859 0.748535L156.746 1.23733C155.409 1.8254 153.804 2.29128 151.979 2.6235L151.363 2.73425V4.25408L152.052 4.30754C152.673 4.35718 153.052 4.52902 153.184 4.82306C153.254 4.98726 153.487 5.93048 153.494 11.101C151.537 9.45129 149.142 8.61882 146.351 8.61882C142.948 8.61882 140.091 9.69187 137.859 11.8112C135.622 13.9382 134.487 16.661 134.487 19.903C134.487 23.1451 135.603 25.7379 137.805 27.8268C139.998 29.9079 142.785 30.9657 146.091 30.9657C148.041 30.9657 149.723 30.5571 151.095 29.7552C152.049 29.1977 152.963 28.3843 153.824 27.3265C154.072 28.5599 154.32 29.4535 154.564 30.0301L154.758 30.4846H160.014V28.9074C160.014 28.9074 159.634 28.8883 159.51 28.8616C158.99 28.7509 158.32 28.285 158.138 26.7766H158.134ZM139.619 19.903C139.619 16.9626 140.235 14.6905 141.444 13.1478C142.626 11.6432 144.293 10.91 146.537 10.91C151.169 10.91 153.421 13.816 153.421 19.7923C153.421 22.4539 152.886 24.5847 151.828 26.1236C150.642 27.842 148.913 28.6745 146.537 28.6745C144.161 28.6745 142.308 27.6778 140.998 25.631C140.08 24.1837 139.615 22.2591 139.615 19.903H139.619Z" fill="black"/>
<path d="M196.44 25.6158C195.37 23.8821 193.901 21.2014 192.071 17.6462L184.42 2.81067L176.184 18.1159C174.064 22.0759 172.51 24.768 171.572 26.116C170.676 27.3991 169.862 28.5829 168.762 28.8846C168.673 28.9075 168.386 28.9037 168.386 28.9037V30.4808H176.89V28.9037C176.89 28.9037 176.517 28.8884 176.393 28.8617C174.94 28.5447 174.831 27.7122 174.831 27.2731C174.831 26.7881 175.169 25.3294 177.444 20.9761L178.618 18.7231H187.502L190.25 24.1036C191.389 26.3528 191.63 27.4488 191.63 27.9757C191.63 28.1934 191.649 28.6707 190.719 28.8502C190.583 28.8769 190.165 28.9113 190.165 28.9113V30.4884H200.052V28.9113H200.048C199.754 28.9037 199.467 28.8235 199.215 28.6669C198.254 28.0674 197.323 27.044 196.444 25.6234L196.44 25.6158ZM179.862 16.4319L183.157 10.3907L186.316 16.4319H179.862Z" fill="black"/>
<path d="M240.385 28.1476C240.109 27.2655 239.97 25.612 239.97 23.2406V18.7422C239.97 15.4008 239.253 12.9072 237.838 11.3225C236.299 9.58881 234.082 8.71052 231.249 8.71052C227.668 8.71052 225.028 10.1502 223.385 12.9989C222.986 12.0671 222.517 11.3416 221.97 10.8031C220.509 9.39024 218.466 8.67615 215.908 8.67615C212.73 8.67615 210.288 9.88285 208.621 12.2733C208.652 11.4676 208.699 10.7077 208.761 9.99741L208.866 8.78307L207.722 9.24895C205.912 9.98595 204.443 10.4557 203.354 10.6428L202.73 10.7497V12.3153L203.424 12.3688C204.021 12.4146 204.269 12.6399 204.346 13.2013C204.517 14.4691 204.602 17.4515 204.602 22.0644V23.2444C204.602 25.4707 204.474 27.0172 204.222 27.8421C204.222 27.8497 204.218 27.8574 204.215 27.8688C204.005 28.5256 203.354 28.9457 202.653 28.9151H202.614V30.4884H210.854V28.9113C210.854 28.9113 210.393 28.9189 210.245 28.9037C209.757 28.8578 209.505 28.6058 209.366 28.159C209.114 27.3227 208.986 25.6731 208.986 23.2444V21.4382C208.986 18.2267 209.373 15.8323 210.141 14.324C211.11 12.4146 212.687 11.4905 214.97 11.4905C217.086 11.4905 218.455 12.2275 219.148 13.7435C219.749 15.0686 220.055 17.2491 220.055 20.2238V23.2482C220.055 25.4974 219.928 27.0592 219.676 27.8803C219.428 28.6936 219.021 28.8846 218.683 28.9113C218.532 28.9228 218.071 28.9113 218.071 28.9113V30.4884H226.532V28.9113C226.532 28.9113 226.055 28.9228 225.896 28.9113C225.365 28.8693 225.055 28.5982 224.877 28.117C224.676 27.5671 224.435 26.2764 224.435 23.2444V19.7427C224.435 17.2376 224.877 15.2595 225.745 13.8657C226.78 12.2161 228.237 11.4141 230.195 11.4141C231.834 11.4141 233.055 11.9526 233.923 13.06C234.827 14.2132 235.284 15.9125 235.284 18.1197V23.2444C235.284 25.4936 235.156 27.0554 234.904 27.8764C234.656 28.6898 234.249 28.8693 233.912 28.8998C233.761 28.9151 233.299 28.9075 233.299 28.9075V30.4846H241.95V28.9075C241.95 28.9075 241.482 28.9113 241.33 28.8998C240.795 28.8502 240.524 28.5982 240.385 28.1476Z" fill="black"/>
<path d="M255.326 8.6189C251.95 8.6189 249.067 9.7034 246.749 11.8419C244.419 13.9918 243.237 16.6687 243.237 19.7923C243.237 22.916 244.419 25.6235 246.749 27.7619C249.063 29.8889 251.95 30.9658 255.322 30.9658C258.694 30.9658 261.555 29.8889 263.896 27.7657C266.253 25.6273 267.45 22.9924 267.45 19.9413C267.45 16.8901 266.357 14.2171 264.194 12.1168C261.815 9.79887 258.83 8.62272 255.322 8.62272L255.326 8.6189ZM261.02 25.6807C259.954 27.697 258.09 28.6746 255.326 28.6746C252.563 28.6746 250.757 27.6932 249.667 25.6769C248.807 24.0731 248.369 22.095 248.369 19.7923C248.369 17.4897 248.807 15.5345 249.667 13.9039C250.733 11.8877 252.586 10.9101 255.326 10.9101C258.067 10.9101 259.935 11.8915 261.024 13.9078C261.884 15.5116 262.322 17.5317 262.322 19.9031C262.322 22.1065 261.884 24.0502 261.024 25.6807H261.02Z" fill="black"/>
<path d="M290.93 24.7566C290.907 24.3823 290.895 22.6028 290.895 19.4562V14.6256C290.895 12.8308 290.946 11.2346 291.043 9.88665L291.132 8.66467L289.992 9.15728C288.461 9.81791 286.861 10.2838 285.233 10.5435L284.601 10.6427V12.1969L285.271 12.2657C285.977 12.3382 286.279 12.5177 286.326 12.6475C286.376 12.7888 286.543 13.5182 286.543 17.0237V18.2037C286.543 21.7131 286.213 24.1723 285.566 25.5241C285.182 26.3413 284.543 26.9867 283.605 27.4869C282.647 28.0024 281.562 28.2621 280.372 28.2621C278.213 28.2621 276.779 27.5251 275.989 26.0053C275.349 24.7909 275.023 22.7594 275.023 19.9679V14.6218C275.023 12.827 275.074 11.2308 275.171 9.88283L275.26 8.63794L274.109 9.15728C272.752 9.76827 271.151 10.2341 269.353 10.5396L268.729 10.6466V12.1969L269.403 12.2657C270.206 12.3459 270.454 12.5444 270.473 12.6055C270.52 12.7392 270.675 13.4495 270.675 17.0123L270.601 22.2821C270.547 25.3065 271.392 27.5595 273.113 28.98C274.69 30.2936 276.818 30.9619 279.434 30.9619C282.62 30.9619 285.147 29.8316 286.977 27.5977C287.268 28.6211 287.554 29.4306 287.841 30.0531L288.043 30.4846H292.605V28.9075H292.601C292.225 28.8349 291.891 28.6134 291.705 28.285C291.399 27.7504 291.07 26.7232 290.923 24.7566H290.93Z" fill="black"/>
<path d="M68.8556 24.7566C68.8323 24.3823 68.8207 22.6028 68.8207 19.4562V14.6256C68.8207 12.8308 68.8711 11.2346 68.968 9.88665L69.0571 8.66467L67.9176 9.15728C66.3866 9.81791 64.7859 10.2838 63.158 10.5435L62.5262 10.6427V12.1969L63.1967 12.2657C63.9021 12.3382 64.2045 12.5177 64.251 12.6475C64.3014 12.7888 64.468 13.5182 64.468 17.0237V18.2037C64.468 21.7131 64.1386 24.1723 63.4913 25.5241C63.1076 26.3413 62.4681 26.9867 61.5301 27.4869C60.5727 28.0024 59.4875 28.2621 58.2976 28.2621C56.1387 28.2621 54.7046 27.5251 53.9139 26.0053C53.2744 24.7909 52.9488 22.7594 52.9488 19.9679V14.6218C52.9488 12.827 52.9992 11.2308 53.0961 9.88283L53.1852 8.63794L52.0341 9.15728C50.6775 9.76827 49.0767 10.2341 47.2783 10.5396L46.6543 10.6466V12.1969L47.3287 12.2657C48.131 12.3459 48.3791 12.5444 48.3985 12.6055C48.445 12.7392 48.6 13.4495 48.6 17.0123L48.5264 22.2821C48.4721 25.3065 49.3171 27.5595 51.038 28.98C52.6155 30.2936 54.7433 30.9619 57.3596 30.9619C60.5456 30.9619 63.0727 29.8316 64.9021 27.5977C65.1928 28.6211 65.4796 29.4306 65.7665 30.0531L65.968 30.4846H70.53V28.9075H70.5261C70.1501 28.8349 69.8168 28.6134 69.6308 28.285C69.3246 27.7504 68.9951 26.7232 68.8478 24.7566H68.8556Z" fill="black"/>
<path d="M168.614 0.73333C168.967 0.530941 168.541 -0.18697 168.118 0.045969C161.525 3.65462 162.033 8.48142 162.901 10.1158C164.777 13.6404 168.568 12.2505 168.723 10.0356C168.82 8.65326 167.742 7.51148 166.831 6.77447C165.099 5.36538 166.056 1.94385 168.61 0.737149L168.614 0.73333Z" fill="black"/>
<path d="M120.835 8.69141C119.223 8.69141 117.677 9.25275 116.239 10.3602C115.56 10.8833 114.944 11.4943 114.394 12.1893L114.518 8.76396L113.467 9.14583C112.099 9.64226 110.494 10.0394 108.704 10.3258L108.072 10.4251V11.9296L108.731 12.0098C109.576 12.1129 109.743 12.491 109.801 12.8958C109.967 14.0108 110.053 17.0658 110.053 21.9651V23.1451C110.053 25.9289 109.793 27.1852 109.576 27.7504C109.324 28.4072 108.898 28.7394 108.2 28.8273L107.545 28.9113V30.4846H116.719V28.9342L116.091 28.8311C115.274 28.6974 115.033 28.3194 114.917 28.0215C114.599 27.1509 114.436 25.5088 114.436 23.1489V20.0901C114.436 17.9173 114.808 16.1455 115.541 14.8242C116.204 13.6328 117.014 13.0523 118.025 13.0523C118.502 13.0523 118.967 13.3082 119.448 13.839L120.293 14.7707L122.409 8.85179L121.483 8.74105C121.25 8.71432 121.029 8.69904 120.832 8.69904L120.835 8.69141Z" fill="black"/>
<path d="M308.418 8.69141C306.806 8.69141 305.26 9.25275 303.822 10.3602C303.143 10.8833 302.527 11.4943 301.977 12.1893L302.101 8.76396L301.05 9.14583C299.682 9.64226 298.078 10.0394 296.287 10.3258L295.655 10.4251V11.9296L296.314 12.0098C297.159 12.1129 297.326 12.491 297.384 12.8958C297.55 14.0108 297.636 17.0658 297.636 21.9651V23.1451C297.636 25.9289 297.376 27.1852 297.159 27.7504C296.907 28.4072 296.481 28.7394 295.783 28.8273L295.128 28.9113V30.4846H304.302V28.9342L303.674 28.8311C302.857 28.6974 302.616 28.3194 302.5 28.0215C302.182 27.1509 302.019 25.5088 302.019 23.1489V20.0901C302.019 17.9173 302.391 16.1455 303.124 14.8242C303.787 13.6328 304.597 13.0523 305.608 13.0523C306.085 13.0523 306.55 13.3082 307.031 13.839L307.876 14.7707L309.992 8.85179L309.066 8.74105C308.833 8.71432 308.612 8.69904 308.415 8.69904L308.418 8.69141Z" fill="black"/>
</svg>
