<svg width="100" height="25" viewBox="0 0 100 25" fill="none" xmlns="http://www.w3.org/2000/svg">
<path d="M19.1556 13.743C18.7088 13.5703 18.1561 13.4092 17.4858 13.2711C17.8856 13.1445 18.2266 13.0063 18.5089 12.8567C20.3668 11.8899 21.3075 10.5087 21.3075 8.73614C21.3075 6.69887 20.1081 5.20257 17.7445 4.29328C16.2158 3.70627 13.3466 3.41852 8.99573 3.41852H0.611475V4.70764L1.0936 4.81123C1.77563 4.96086 2.16368 5.38673 2.34007 6.14639C2.37534 6.34206 2.4459 6.92907 2.4459 8.71312V12.2122C2.4459 17.219 2.34007 20.3382 2.11664 21.4777C1.94026 22.433 1.42285 23.0546 0.458606 23.2387C0.341015 23.2617 0 23.2963 0 23.2963V24.5739C0 24.5739 10.983 24.6314 12.1942 24.6314C15.1693 24.6314 17.4035 24.3207 19.0028 23.6876C21.7661 22.5711 23.1772 20.9022 23.1772 18.7038C23.1772 16.5054 21.8249 14.8249 19.1556 13.7545V13.743ZM16.7215 8.79369C16.7215 9.92167 16.3452 10.7504 15.5573 11.3374C14.5108 12.1086 12.5235 12.4999 9.666 12.4999H6.20882V5.26012H9.32499C11.8885 5.26012 13.6759 5.42126 14.6166 5.73203C16.0512 6.22696 16.7097 7.1938 16.7097 8.78218L16.7215 8.79369ZM6.20882 14.3645H9.26619C12.9233 14.3645 15.3809 14.6983 16.5451 15.3659C17.9209 16.1371 18.5912 17.242 18.5912 18.7383C18.5912 20.2346 17.9562 21.2245 16.6392 21.9611C15.6749 22.5021 13.9228 22.7783 11.4181 22.7783C9.58369 22.7783 8.29018 22.7323 7.58464 22.6287C6.78502 22.5251 6.42048 22.1453 6.33817 21.3396C6.25586 20.4878 6.22058 18.8304 6.22058 16.4248V14.3645H6.20882Z" fill="black"/>
<path d="M35.4887 6.88277C34.1716 6.88277 32.9134 7.34317 31.7375 8.24094C31.1848 8.66681 30.6792 9.16174 30.2323 9.72573L30.3382 6.94032L29.4797 7.25109C28.3626 7.65394 27.0574 7.97622 25.5875 8.20642L25.0701 8.28698V9.50704L25.611 9.5761C26.3048 9.65667 26.4341 9.96744 26.4812 10.2897C26.6223 11.199 26.6928 13.6737 26.6928 17.6561V18.6114C26.6928 20.8674 26.4812 21.8918 26.3048 22.3522C26.0931 22.8816 25.7521 23.1579 25.1759 23.2269L24.635 23.296V24.5736H32.1255V23.296L31.6081 23.2384C30.9379 23.1349 30.738 22.8241 30.6439 22.5824C30.3852 21.8803 30.2558 20.5451 30.2558 18.6229V16.1368C30.2558 14.3758 30.5616 12.937 31.1613 11.8666C31.7022 10.8998 32.3607 10.4278 33.1956 10.4278C33.5837 10.4278 33.9717 10.635 34.3598 11.0609L35.0536 11.8205L36.7822 7.02089L36.0296 6.92881C35.8414 6.90579 35.665 6.89428 35.5004 6.89428L35.4887 6.88277Z" fill="black"/>
<path d="M48.2476 3.81008L53.2805 5.95093C53.3864 6.00848 53.5157 6.04301 53.6451 6.04301H53.939L48.6357 0.115374C48.5651 0.0463146 48.4828 0.000274658 48.377 0.000274658H48.0712C47.9772 0.000274658 47.8713 0.0463146 47.8125 0.115374L42.6268 6.04301H42.8384C42.9443 6.04301 43.0501 6.01999 43.1324 5.96244L48.2241 3.79857L48.2476 3.81008Z" fill="black"/>
<path d="M65.6153 21.581C65.4506 20.0616 65.3566 18.8991 65.3095 18.1395C65.2507 16.5166 65.2155 14.8821 65.2155 13.2823V7.4467C65.2155 5.42094 65.2507 3.40669 65.3331 1.42697L65.3683 0.529194L64.5099 0.839964C63.334 1.26583 62.064 1.58811 60.7352 1.79529L60.2178 1.87586V3.13045L60.794 3.16498C61.2997 3.19951 61.6407 3.38367 61.6877 4.21239C61.8053 6.33023 61.8759 9.87531 61.8759 14.767C61.8759 20.5911 61.3702 22.191 61.0645 22.6284C60.8646 22.9276 60.5706 23.1809 60.1473 23.2499C60.0415 23.2729 59.7122 23.2729 59.7122 23.2729V24.5505H67.3556V23.2729C67.3556 23.2729 67.0264 23.2729 66.9088 23.2499C66.4502 23.1809 65.8505 22.824 65.6035 21.5579L65.6153 21.581Z" fill="black"/>
<path d="M85.3476 17.3688C84.8185 19.1758 83.9483 20.58 82.7841 21.5354C81.6082 22.4907 80.2324 22.9511 78.5744 22.9511C76.2108 22.9511 74.5998 22.0533 73.6473 20.2002C72.9653 18.8766 72.6125 17.3342 72.6125 15.6307C72.6125 15.1703 72.636 14.7675 72.6713 14.4107H86.9704L86.8763 13.7316C86.6059 11.7864 85.6063 10.129 83.8778 8.80532C82.1727 7.50469 80.1854 6.83712 77.9511 6.83712C75.3171 6.83712 73.0358 7.72338 71.2014 9.46139C69.3552 11.2109 68.4145 13.3518 68.4145 15.8494C68.4145 18.4852 69.3317 20.6836 71.1544 22.4101C72.9653 24.1251 75.2818 24.9999 78.0452 24.9999C80.2677 24.9999 82.2315 24.3898 83.8542 23.1698C85.4887 21.9497 86.5824 20.2808 87.0998 18.1975L87.1821 17.8522L85.5946 16.471L85.3241 17.3918L85.3476 17.3688ZM82.4902 12.5691H73.0946C73.8472 9.9333 75.4582 8.65569 77.9982 8.65569C79.3858 8.65569 80.4676 9.05854 81.2907 9.87575C81.9963 10.5779 82.3961 11.4641 82.4902 12.5691Z" fill="black"/>
<path d="M56.2438 19.9241C56.2203 19.6248 56.2203 18.1746 56.2203 15.6194V11.6944C56.2203 10.2327 56.2556 8.94356 56.3379 7.85011L56.4084 6.86025L55.4795 7.2631C54.233 7.80407 52.916 8.17239 51.5872 8.39108L51.0698 8.47165V9.73775L51.6225 9.7953C52.1987 9.85285 52.4456 10.0025 52.4809 10.1061C52.5279 10.2212 52.6573 10.8082 52.6573 13.6627V14.618C52.6573 17.4609 52.3868 19.4637 51.8576 20.5571C51.5401 21.2247 51.0227 21.7427 50.2584 22.157C49.4823 22.5714 48.5886 22.7901 47.6244 22.7901C45.8605 22.7901 44.6846 22.1916 44.0378 20.96C43.5204 19.9701 43.25 18.3242 43.25 16.0567V11.7175C43.25 10.2557 43.2852 8.96658 43.3676 7.87313L43.4381 6.86025L42.4974 7.28612C41.392 7.78105 40.0868 8.16088 38.6169 8.40259L38.1112 8.48316V9.73775L38.6639 9.7953C39.3224 9.86436 39.5223 10.0255 39.5341 10.0715C39.5694 10.1751 39.6987 10.7506 39.6987 13.6511L39.6399 17.9213C39.5929 20.373 40.2867 22.2031 41.686 23.3541C42.9795 24.4245 44.7081 24.9655 46.8483 24.9655C49.447 24.9655 51.5166 24.0447 53.01 22.2376C53.2452 23.0663 53.4804 23.7224 53.7156 24.2288L53.8802 24.5741H57.6079V23.2965C57.3021 23.239 57.0317 23.0548 56.8788 22.7901C56.6318 22.3527 56.3614 21.524 56.2438 19.9241Z" fill="black"/>
<path d="M98.7063 6.88277C97.3893 6.88277 96.1311 7.34317 94.9551 8.24094C94.4025 8.66681 93.8968 9.16174 93.45 9.72573L93.5558 6.94032L92.6974 7.25109C91.5803 7.65394 90.275 7.97622 88.8051 8.20642L88.2877 8.28698V9.50704L88.8286 9.5761C89.5224 9.65667 89.6518 9.96744 89.6988 10.2897C89.8399 11.199 89.9105 13.6737 89.9105 17.6561V18.6114C89.9105 20.8674 89.6988 21.8918 89.5224 22.3522C89.3108 22.8816 88.9697 23.1579 88.3935 23.2269L87.8526 23.296V24.5736H95.3432V23.319L94.8258 23.2384C94.1555 23.1349 93.9556 22.8241 93.8615 22.5824C93.6029 21.8803 93.4735 20.5451 93.4735 18.6229V16.1368C93.4735 14.3758 93.7792 12.937 94.379 11.8666C94.9199 10.8998 95.5784 10.4278 96.4133 10.4278C96.8013 10.4278 97.1894 10.635 97.5774 11.0609L98.2712 11.8205L99.9998 7.02089L99.2472 6.92881C99.0591 6.90579 98.8827 6.89428 98.7181 6.89428L98.7063 6.88277Z" fill="black"/>
</svg>
