<?xml version="1.0" standalone="no"?>
<!DOCTYPE svg PUBLIC "-//W3C//DTD SVG 20010904//EN"
 "http://www.w3.org/TR/2001/REC-SVG-20010904/DTD/svg10.dtd">
<svg version="1.0" xmlns="http://www.w3.org/2000/svg"
 width="700.000000pt" height="700.000000pt" viewBox="0 0 700.000000 700.000000"
 preserveAspectRatio="xMidYMid meet">
<metadata>
Created by potrace 1.14, written by Peter Selinger 2001-2017
</metadata>
<g transform="translate(0.000000,700.000000) scale(0.100000,-0.100000)"
fill="#000000" stroke="none">
<path d="M4845 5267 c-15 -28 -63 -119 -107 -202 -44 -82 -101 -188 -126 -235
-24 -47 -57 -107 -72 -135 -15 -27 -53 -99 -85 -160 -32 -60 -72 -137 -90
-170 -18 -33 -56 -105 -85 -160 -29 -55 -69 -131 -90 -170 -21 -38 -58 -108
-83 -155 -24 -47 -99 -186 -165 -310 -208 -392 -236 -444 -251 -477 -8 -18
-18 -33 -21 -33 -4 0 -22 21 -41 48 -128 179 -356 323 -639 404 -97 27 -109
33 -89 41 315 124 508 321 559 572 7 33 13 105 13 160 0 287 -151 508 -448
658 -72 36 -220 91 -271 101 -16 3 -49 10 -74 15 -46 9 -92 17 -157 26 -21 3
-51 7 -68 10 -30 5 -121 13 -225 21 -195 14 -481 18 -1210 19 l-825 0 0 -105
c0 -63 4 -105 10 -106 170 -13 258 -116 273 -318 8 -117 7 -1412 -2 -1746 -7
-261 -11 -365 -21 -457 -3 -29 -8 -79 -11 -110 -23 -228 -118 -345 -298 -368
-21 -2 -40 -6 -42 -7 -3 -3 -6 -129 -5 -179 l1 -26 498 -2 c1455 -7 1832 -5
1928 13 10 2 48 7 84 11 111 12 303 53 401 86 185 61 393 175 506 277 95 85
148 167 209 320 54 136 227 493 344 712 29 52 74 137 101 187 27 51 60 112 73
135 12 24 49 93 81 153 32 61 70 133 85 160 15 28 49 91 75 140 26 50 62 117
80 150 17 33 58 109 90 168 31 60 58 107 60 105 6 -8 139 -265 300 -583 98
-192 240 -471 315 -620 404 -794 457 -912 475 -1068 11 -94 -25 -132 -143
-152 l-43 -7 3 -101 3 -102 635 0 635 0 3 102 3 101 -33 7 c-139 29 -336 248
-523 580 -37 66 -186 338 -230 420 -53 98 -360 698 -675 1320 -100 198 -233
459 -295 580 -62 121 -145 284 -184 362 -40 78 -76 145 -80 148 -5 3 -21 -19
-36 -48z m-2835 -441 c25 -2 77 -7 115 -11 68 -6 181 -25 259 -44 63 -15 161
-68 215 -117 96 -87 143 -204 146 -370 6 -260 -99 -417 -340 -513 -44 -17 -89
-33 -100 -35 -248 -49 -274 -53 -415 -62 -105 -7 -778 -12 -797 -6 -8 3 -11
152 -11 587 l0 584 441 -4 c243 -3 462 -7 487 -9z m-115 -1470 c88 -4 174 -9
190 -10 17 -2 64 -7 105 -11 41 -4 84 -9 95 -11 11 -2 40 -7 65 -10 66 -8 228
-50 289 -74 103 -40 223 -129 285 -210 81 -106 119 -228 118 -375 -1 -96 -3
-109 -26 -189 -57 -196 -272 -367 -517 -412 -24 -4 -46 -8 -49 -9 -32 -7 -159
-22 -270 -31 -162 -14 -767 -6 -862 11 -16 3 -39 7 -52 9 -52 9 -99 40 -127
84 -27 43 -34 75 -44 202 -7 77 -17 1029 -11 1038 5 9 593 7 811 -2z"/>
<path d="M4835 3358 c-385 -230 -597 -540 -596 -873 1 -337 262 -585 521 -494
84 29 156 96 184 169 49 126 1 257 -149 404 -130 129 -149 167 -147 295 2 118
62 250 157 347 33 34 76 69 95 79 60 30 70 43 58 76 -5 16 -14 29 -18 29 -5 0
-14 2 -22 5 -7 3 -44 -14 -83 -37z"/>
</g>
</svg>
