<svg width="40" height="40" viewBox="0 0 40 40" fill="none" xmlns="http://www.w3.org/2000/svg">
<rect width="40" height="40" rx="20" fill="white" fill-opacity="0.4"/>
<path fill-rule="evenodd" clip-rule="evenodd" d="M9.66806 10.4453C9.97441 9.98576 10.5953 9.86158 11.0548 10.1679L15.5548 13.1679C15.768 13.31 15.9185 13.5285 15.9752 13.7784L18.2983 24H26.7519L27.3401 22H24.1365H20.5001C19.9478 22 19.5001 21.5523 19.5001 21C19.5001 20.4477 19.9478 20 20.5001 20H24.1365H27.9283L28.6636 17.5H20.5001C19.9478 17.5 19.5001 17.0523 19.5001 16.5C19.5001 15.9477 19.9478 15.5 20.5001 15.5H30.0001C30.3153 15.5 30.612 15.6486 30.8008 15.9009C30.9896 16.1532 31.0484 16.4798 30.9595 16.7822L28.4595 25.2822C28.3343 25.7077 27.9437 26 27.5001 26H17.5001C17.0332 26 16.6284 25.6769 16.525 25.2216L14.1134 14.6107L9.94541 11.832C9.48588 11.5257 9.3617 10.9048 9.66806 10.4453ZM20.0001 28.75C20.0001 29.7165 19.2166 30.5 18.2501 30.5C17.2836 30.5 16.5001 29.7165 16.5001 28.75C16.5001 27.7835 17.2836 27 18.2501 27C19.2166 27 20.0001 27.7835 20.0001 28.75ZM28.5001 28.75C28.5001 29.7165 27.7166 30.5 26.7501 30.5C25.7836 30.5 25.0001 29.7165 25.0001 28.75C25.0001 27.7835 25.7836 27 26.7501 27C27.7166 27 28.5001 27.7835 28.5001 28.75Z" fill="black" fill-opacity="0.4"/>
</svg>
