<svg width="40" height="40" viewBox="0 0 40 40" fill="none" xmlns="http://www.w3.org/2000/svg">
<rect width="40" height="40" rx="20" fill="white" fill-opacity="0.4"/>
<g clip-path="url(#clip0_2588_8219)">
<path fill-rule="evenodd" clip-rule="evenodd" d="M8 13.5C8 12.9477 8.44772 12.5 9 12.5H23.5C24.0523 12.5 24.5 12.9477 24.5 13.5V16H27.7857C28.099 16 28.3943 16.1469 28.5833 16.3968L31.7976 20.6468C31.9289 20.8205 32 21.0323 32 21.25V25.5C32 26.0523 31.5523 26.5 31 26.5H28.3293C27.9174 27.6652 26.8062 28.5 25.5 28.5C24.1938 28.5 23.0826 27.6652 22.6707 26.5H16.8293C16.4174 27.6652 15.3062 28.5 14 28.5C12.6938 28.5 11.5825 27.6652 11.1707 26.5H9C8.44772 26.5 8 26.0523 8 25.5V13.5ZM28.3293 24.5H30V21.5856L27.2882 18H24.5V22.6707C24.8128 22.5602 25.1494 22.5 25.5 22.5C26.8062 22.5 27.9174 23.3348 28.3293 24.5ZM22.5 24.5V17V14.5H10V24.5H11.1707C11.5825 23.3348 12.6938 22.5 14 22.5C15.3062 22.5 16.4174 23.3348 16.8293 24.5H22.5ZM25.5 26.5C24.9477 26.5 24.5 26.0523 24.5 25.5C24.5 24.9477 24.9477 24.5 25.5 24.5C26.0523 24.5 26.5 24.9477 26.5 25.5C26.5 26.0523 26.0523 26.5 25.5 26.5ZM14 24.5C13.4477 24.5 13 24.9477 13 25.5C13 26.0523 13.4477 26.5 14 26.5C14.5523 26.5 15 26.0523 15 25.5C15 24.9477 14.5523 24.5 14 24.5Z" fill="black" fill-opacity="0.4"/>
</g>
<defs>
<clipPath id="clip0_2588_8219">
<rect width="24" height="24" fill="white" transform="translate(8 8)"/>
</clipPath>
</defs>
</svg>
