<svg width="40" height="40" viewBox="0 0 40 40" fill="none" xmlns="http://www.w3.org/2000/svg">
<rect width="40" height="40" rx="20" fill="white" fill-opacity="0.4"/>
<g clip-path="url(#clip0_2588_8221)">
<path fill-rule="evenodd" clip-rule="evenodd" d="M11 10C11 9.44771 11.4477 9 12 9H28C28.5523 9 29 9.44771 29 10V13H30C30.5523 13 31 13.4477 31 14V18C31 18.3513 30.8157 18.6768 30.5145 18.8575L29.8152 19.277C29.554 19.4338 29.2808 19.5618 29 19.6611V30C29 30.5523 28.5523 31 28 31H22.5H17.5H12C11.4477 31 11 30.5523 11 30V19.6611C10.7192 19.5618 10.446 19.4338 10.1848 19.277L9.48551 18.8575C9.1843 18.6768 9 18.3513 9 18V14C9 13.4477 9.44772 13 10 13H11V10ZM18.5 29H21.5V25H18.5V29ZM23.5 29V24C23.5 23.4477 23.0523 23 22.5 23H17.5C16.9477 23 16.5 23.4477 16.5 24V29H13V19.8905C13.6016 19.8233 14.1926 19.6345 14.735 19.3241C14.7619 19.3087 14.7886 19.293 14.8153 19.277L15 19.1662L15.1847 19.277C15.2269 19.3023 15.2694 19.3269 15.3122 19.3507C16.5505 20.0399 18.034 20.1015 19.3162 19.5356C19.4865 19.4605 19.6531 19.3743 19.8152 19.277L20 19.1662L20.1848 19.277C20.4006 19.4065 20.6245 19.5164 20.8541 19.6067C21.7819 19.9714 22.8024 20.016 23.7529 19.7405C24.1206 19.634 24.4779 19.4795 24.8152 19.277L25 19.1662L25.1848 19.277C25.7489 19.6155 26.3686 19.82 27 19.8905V29H23.5ZM27 11V13H13V11H27ZM11 15V17.4338L11.2138 17.5621L11.2138 17.5621C12.0055 18.0371 12.9945 18.0371 13.7862 17.5621L13.7863 17.5621L14.4855 17.1425C14.8022 16.9525 15.1978 16.9525 15.5145 17.1425L16.2137 17.5621L16.2138 17.5621C17.0055 18.0371 17.9945 18.0371 18.7862 17.5621L19.3007 18.4195L18.7863 17.5621L19.4449 17.1668L19.4855 17.1425C19.8022 16.9525 20.1978 16.9525 20.5145 17.1425L21.2137 17.5621L21.1833 17.6129L20.6993 18.4195L21.1833 17.6129L21.2138 17.5621C21.282 17.603 21.3516 17.6404 21.4225 17.6743C21.7193 17.8161 22.0373 17.8961 22.3581 17.9143C22.85 17.9422 23.3483 17.8248 23.7862 17.5621L24.2959 18.4115L23.7863 17.5621L24.4855 17.1425C24.8022 16.9525 25.1978 16.9525 25.5145 17.1425L26.2137 17.5621L25.7041 18.4115L26.2138 17.5621C27.0055 18.0371 27.9945 18.0371 28.7862 17.5621L29 17.9183L28.7863 17.5621L29 17.4338V15H28H11Z" fill="black" fill-opacity="0.4"/>
</g>
<defs>
<clipPath id="clip0_2588_8221">
<rect width="24" height="24" fill="white" transform="translate(8 8)"/>
</clipPath>
</defs>
</svg>
