<svg width="84" height="9" viewBox="0 0 84 9" fill="none" xmlns="http://www.w3.org/2000/svg">
<path d="M12.3356 1.11347L10.6807 8.8507H8.67887L10.334 1.11347H12.3356ZM20.7569 6.10949L21.8105 3.20401L22.4167 6.10949H20.7569ZM22.991 8.8507H24.8419L23.2249 1.11347H21.5176C21.1328 1.11347 20.8084 1.33657 20.6649 1.68061L17.6614 8.8507H19.7636L20.1809 7.69519H22.7486L22.991 8.8507ZM17.7656 6.32476C17.7743 4.28278 14.9428 4.16966 14.9618 3.25726C14.9679 2.98004 15.2324 2.68473 15.8105 2.6092C16.0971 2.57231 16.888 2.54238 17.7846 2.95551L18.1353 1.31412C17.6537 1.13993 17.034 0.972168 16.263 0.972168C14.2841 0.972168 12.8921 2.02327 12.881 3.52961C12.8683 4.64353 13.8754 5.26461 14.6325 5.63563C15.4132 6.01483 15.6748 6.25793 15.6709 6.59676C15.6655 7.11587 15.0485 7.34575 14.4738 7.35445C13.4669 7.37011 12.8833 7.08228 12.4181 6.86545L12.0547 8.56165C12.5232 8.77604 13.3864 8.9626 14.2801 8.97217C16.3839 8.97217 17.7594 7.93343 17.7656 6.32476ZM9.47537 1.11347L6.23211 8.8507H4.11652L2.52038 2.67585C2.42362 2.29613 2.33922 2.15657 2.04495 1.99612C1.5636 1.73474 0.769014 1.49023 0.0703125 1.33814L0.117647 1.11347H3.52362C3.95746 1.11347 4.34779 1.40218 4.44716 1.90197L5.2903 6.37958L7.37248 1.11347H9.47537Z" fill="#1434CB"/>
<path d="M41.0664 1.82715H37.5664V8.11674H41.0664V1.82715Z" fill="#FF5F00"/>
<path d="M37.7879 4.97217C37.7873 4.36643 37.9246 3.76851 38.1893 3.22367C38.454 2.67883 38.8391 2.20134 39.3156 1.82737C38.7256 1.36355 38.0169 1.07511 37.2706 0.995013C36.5244 0.914916 35.7706 1.0464 35.0955 1.37442C34.4205 1.70245 33.8513 2.21379 33.4531 2.85C33.0549 3.48621 32.8438 4.22162 32.8438 4.97217C32.8438 5.72271 33.0549 6.45812 33.4531 7.09433C33.8513 7.73054 34.4205 8.24188 35.0955 8.56991C35.7706 8.89794 36.5244 9.02942 37.2706 8.94932C38.0169 8.86923 38.7256 8.58078 39.3156 8.11697C38.8391 7.74299 38.454 7.2655 38.1893 6.72066C37.9246 6.17582 37.7873 5.5779 37.7879 4.97217Z" fill="#EB001B"/>
<path d="M45.7881 4.97217C45.7881 5.7227 45.577 6.45811 45.1788 7.09432C44.7806 7.73053 44.2115 8.24187 43.5364 8.5699C42.8614 8.89793 42.1076 9.02942 41.3614 8.94932C40.6151 8.86923 39.9065 8.58078 39.3164 8.11697C39.7925 7.74261 40.1774 7.26505 40.442 6.72029C40.7067 6.17554 40.8442 5.5778 40.8442 4.97217C40.8442 4.36653 40.7067 3.7688 40.442 3.22404C40.1774 2.67928 39.7925 2.20172 39.3164 1.82737C39.9065 1.36355 40.6151 1.07511 41.3614 0.995012C42.1076 0.914916 42.8614 1.0464 43.5364 1.37443C44.2115 1.70246 44.7806 2.21381 45.1788 2.85001C45.577 3.48622 45.7881 4.22163 45.7881 4.97217Z" fill="#F79E1B"/>
<path d="M45.4045 7.45067V7.3219H45.4565V7.29567H45.3242V7.3219H45.3762V7.45067H45.4045ZM45.6613 7.45067V7.29541H45.6207L45.5741 7.4022L45.5275 7.29541H45.4869V7.45067H45.5155V7.33356L45.5593 7.43452H45.5889L45.6327 7.3333V7.45067H45.6613Z" fill="#F79E1B"/>
<path d="M56.5388 0.972966C56.5238 0.973221 56.5099 0.973457 56.4972 0.973533L53.7852 0.973558V8.97215H56.4059V4.25495H56.5816L58.0426 8.97215H60.0143L61.4753 4.25845H61.651V8.97215H64.2718V0.973558L61.7004 0.973555C61.6805 0.973555 61.6588 0.973257 61.6355 0.972937C61.2693 0.96791 60.514 0.957543 60.2007 2.01504C60.006 2.67228 59.6482 3.90061 59.1273 5.70001H58.9296C58.4439 3.99323 58.09 2.76491 57.8678 2.01504C57.5539 0.955689 56.8335 0.967949 56.5388 0.972966Z" fill="#0F754E"/>
<path d="M68.0351 5.69077V0.973558H65.3596V8.97217H67.8957C67.8957 8.97217 68.6658 8.90231 69.0107 8.13389L70.753 4.25495H70.9621V8.97217H73.6375V0.973558H71.1014C71.1014 0.973558 70.3662 1.03992 70.0212 1.81184L68.2441 5.69077H68.0351Z" fill="#0F754E"/>
<path d="M80.0424 6.58951C81.34 6.58951 82.5119 5.83211 82.8851 4.77455H74.6924V8.97217H77.2366V6.58951H80.0424Z" fill="#0F754E"/>
<path d="M74.559 0.973556H80.1651C82.3222 0.973556 83.3648 2.79874 83.0619 4.27877H77.8135C76.226 4.27877 74.6924 2.75432 74.559 0.973556Z" fill="#0F754E"/>
</svg>
