<svg width="85" height="12" viewBox="0 0 85 12" fill="none" xmlns="http://www.w3.org/2000/svg">
<path d="M15.023 0.0776367H13.0207V10.0528H15.023V0.0776367Z" fill="black"/>
<path d="M10.7205 0.635812H8.71816V10.6108H10.7205V0.635812Z" fill="black"/>
<path d="M6.41808 1.25896H4.41573V11.2358H6.41808V1.25896Z" fill="black"/>
<path d="M2.11562 1.88903H0.113281L0.113289 11.867H2.11563L2.11562 1.88903Z" fill="black"/>
<path d="M67.9084 5.39222L64.6842 1.87071H62.7994V10.0242H64.7673V4.82212L67.711 7.90417H68.0744L70.9672 4.82212V10.0242H72.9353V1.87071H71.0506L67.9084 5.39222Z" fill="black"/>
<path d="M82.3105 1.87071L77.4329 7.17021V1.87071H75.4648V10.0242H77.2682L82.1458 4.72473V10.0242H84.1133V1.87071H82.3105Z" fill="black"/>
<path d="M52.1997 4.85419C52.1997 6.15234 52.9224 7.17493 54.0315 7.60373L51.9516 10.0242H54.3603L56.2523 7.82223H58.2997V10.0242H60.2676V1.87071H55.2575C53.3896 1.87071 52.1997 3.1261 52.1997 4.85419ZM58.3009 3.6665V6.07752H55.6225C54.7289 6.07752 54.2495 5.58818 54.2495 4.87082C54.2495 4.15345 54.7457 3.66413 55.6225 3.66413L58.3009 3.6665Z" fill="black"/>
<path d="M43.0549 3.50141C42.9345 6.30555 42.3324 8.11559 41.1533 8.11559H40.8582V10.0729L41.1726 10.0895C43.5367 10.219 44.8434 8.18089 45.0578 3.72945H48.1674V10.0242H50.1317V1.87071H43.1212L43.0549 3.50141Z" fill="black"/>
<path d="M35.6471 1.75679C32.9855 1.75679 31.0705 3.56683 31.0705 5.94697C31.0705 8.40908 33.1541 10.155 35.6471 10.155C38.2437 10.155 40.261 8.31169 40.261 5.94697C40.261 3.58227 38.2437 1.75679 35.6471 1.75679ZM35.6471 8.19766C34.1428 8.19766 33.118 7.23564 33.118 5.94697C33.118 4.62625 34.144 3.69035 35.6471 3.69035C37.1501 3.69035 38.2099 4.66901 38.2099 5.94697C38.2099 7.2249 37.1357 8.19766 35.6471 8.19766Z" fill="black"/>
<path d="M28.9835 1.88609H22.038L21.9718 3.51679C21.873 5.86605 21.2491 8.10007 20.0701 8.13216L19.5245 8.1488V11.8671L21.5093 11.8632V10.0253H28.4042V11.8632H30.4058V8.13216H28.9835V1.88609ZM27.0156 8.13216H22.816C23.5266 7.07275 23.9071 5.53943 23.9734 3.74602H27.0156V8.13216Z" fill="black"/>
</svg>
