<svg width="60" height="17" viewBox="0 0 60 17" fill="none" xmlns="http://www.w3.org/2000/svg">
<g clip-path="url(#clip0_2366_17561)">
<path d="M8.13892 8.76772L13.759 14.5228L13.6444 14.6273L13.596 14.6732C12.0223 16.0769 9.96025 16.8064 7.85394 16.7046C5.74762 16.6028 3.76553 15.6779 2.33452 14.129C0.903516 12.58 0.138075 10.5311 0.203041 8.4233C0.268006 6.31553 1.15818 4.31758 2.68186 2.85973C4.24843 1.42611 6.31674 0.667421 8.43875 0.748009C10.5608 0.828598 12.5656 1.74198 14.0189 3.29028L8.13892 8.76772Z" fill="#01B94F"/>
<path d="M2.685 2.85708C4.25134 1.42472 6.31887 0.66702 8.43984 0.748082C10.5608 0.829144 12.5645 1.74244 14.0169 3.29018C14.0169 3.29018 9.34199 7.66703 9.24773 7.74346C9.24773 7.74346 8.20065 8.7294 8.20829 8.74469C8.21593 8.75997 13.7469 14.4998 13.7469 14.4998L13.6348 14.6068L13.5864 14.6527C10.2846 17.557 5.225 17.4245 2.23661 14.1941C0.801492 12.627 0.0434196 10.5566 0.127395 8.4333C0.211371 6.31005 1.1306 4.3059 2.685 2.85708Z" fill="url(#paint0_radial_2366_17561)"/>
<path d="M2.68577 2.85267C4.25336 1.4222 6.321 0.666224 8.44158 0.748225C10.5622 0.830226 12.5652 1.74361 14.0177 3.29086C14.0177 3.29086 9.4676 7.57091 9.28162 7.72122C9.28162 7.72122 8.26256 8.69442 8.28039 8.72499C8.31861 8.81671 13.7374 14.475 13.7374 14.475L13.6253 14.582L13.5769 14.6279C10.2828 17.5271 5.22067 17.3844 2.24248 14.1642C0.809507 12.6015 0.0520495 10.5358 0.135078 8.41717C0.218106 6.29852 1.13489 4.29848 2.68577 2.85267Z" fill="url(#paint1_radial_2366_17561)"/>
<path d="M2.69402 2.84997C4.26167 1.42137 6.3284 0.666811 8.44775 0.749277C10.5671 0.831744 12.5689 1.74462 14.0208 3.29071C14.0208 3.29071 9.60068 7.4714 9.31534 7.69814C9.31534 7.69814 8.33195 8.65605 8.34979 8.70191C8.40838 8.83948 13.7304 14.4519 13.7304 14.4519L13.6158 14.5589L13.5674 14.6023C10.2835 17.4938 5.22383 17.3461 2.25073 14.1335C0.820067 12.5751 0.0637617 10.5142 0.146808 8.40037C0.229853 6.28651 1.14551 4.29129 2.69402 2.84997Z" fill="url(#paint2_radial_2366_17561)"/>
<path d="M2.69457 2.84754C4.26243 1.42005 6.32879 0.666413 8.44753 0.749351C10.5663 0.832289 12.5674 1.74515 14.0189 3.29083C14.0189 3.29083 9.72608 7.36707 9.34648 7.67533C9.34648 7.67533 8.39366 8.62051 8.41913 8.68166C8.49556 8.86509 13.7182 14.4291 13.7182 14.4291L13.6061 14.5336C13.6061 14.5336 13.5577 14.5769 13.5577 14.5795C10.2815 17.4608 5.22184 17.3029 2.25638 14.103C0.828019 12.5494 0.0723912 10.4938 0.154492 8.38494C0.236592 6.2761 1.14975 4.28541 2.69457 2.84754Z" fill="url(#paint3_radial_2366_17561)"/>
<path d="M2.70063 2.84172C4.26888 1.41642 6.33451 0.664642 8.45202 0.748523C10.5695 0.832403 12.5692 1.74522 14.0198 3.2901C14.0198 3.2901 9.85696 7.27462 9.38055 7.65167C9.38055 7.65167 8.45831 8.58156 8.48888 8.65799C8.58569 8.88728 13.7115 14.4029 13.709 14.4055L13.5969 14.5099L13.5485 14.5558C10.2799 17.4244 5.2228 17.2639 2.26498 14.0717C0.839091 12.5221 0.0845221 10.4711 0.166152 8.36686C0.247782 6.26262 1.15897 4.27622 2.70063 2.84172Z" fill="url(#paint4_radial_2366_17561)"/>
<path d="M2.70256 2.8393C4.271 1.4151 6.33628 0.664246 8.45317 0.748598C10.5701 0.83295 12.569 1.74575 14.0192 3.29023C14.0192 3.29023 9.98373 7.17794 9.41306 7.62123C9.41306 7.62123 8.52138 8.53583 8.5596 8.62755C8.67424 8.90269 13.7007 14.3699 13.7007 14.3699L13.5886 14.4999L13.5402 14.5432C10.2767 17.3914 5.22218 17.2258 2.26946 14.0413C0.846191 12.4961 0.0927453 10.4501 0.173907 8.3509C0.255069 6.25167 1.16423 4.27 2.70256 2.8393Z" fill="url(#paint5_radial_2366_17561)"/>
<path d="M2.70945 2.83688C4.27809 1.41378 6.343 0.66385 8.45928 0.748673C10.5756 0.833496 12.5738 1.74628 14.0235 3.29036C14.0235 3.29036 10.1155 7.08125 9.45052 7.62135C9.45052 7.62135 8.58686 8.52067 8.63017 8.62767C8.77539 8.93594 13.6949 14.3573 13.6923 14.3573L13.5802 14.4618L13.5318 14.5076C10.2785 17.3584 5.22397 17.1852 2.27889 14.0108C0.857611 12.4704 0.104865 10.4293 0.185567 8.3349C0.266269 6.24048 1.17384 4.26343 2.70945 2.83688Z" fill="url(#paint6_radial_2366_17561)"/>
<path d="M2.70991 2.83231C4.27907 1.41063 6.3438 0.662075 8.45948 0.747846C10.5752 0.833617 12.5725 1.74685 14.0214 3.29088C14.0214 3.29088 10.2407 6.98242 9.48154 7.58621C9.48154 7.58621 8.64847 8.47279 8.69942 8.60527C8.85228 8.97213 13.6826 14.3451 13.6801 14.3451C13.6775 14.3451 13.5756 14.4445 13.568 14.4496L13.5196 14.4929C10.2739 17.3259 5.21934 17.1475 2.28191 13.991C0.859308 12.4543 0.105235 10.4156 0.185497 8.32303C0.265758 6.23049 1.17378 4.2555 2.70991 2.83231Z" fill="url(#paint7_radial_2366_17561)"/>
<path d="M2.71567 2.82962C4.28489 1.40981 6.34871 0.662667 8.46315 0.748902C10.5776 0.835138 12.5737 1.74787 14.0221 3.29074C14.0221 3.29074 10.3713 6.88547 9.51533 7.56314C9.51533 7.56314 8.71282 8.43444 8.77142 8.5822C8.94211 8.99492 13.6731 14.3195 13.6731 14.322L13.561 14.4265L13.5126 14.4698C10.2745 17.3028 5.22 17.1168 2.30295 13.9603C0.882002 12.4294 0.127239 10.3968 0.204634 8.30949C0.28203 6.2222 1.18525 4.25109 2.71567 2.82962Z" fill="url(#paint8_radial_2366_17561)"/>
<path d="M2.71675 2.82721C4.28617 1.4085 6.34962 0.662273 8.46345 0.74898C10.5773 0.835687 12.5727 1.7484 14.0206 3.29088C14.0206 3.29088 10.4973 6.78624 9.53679 7.54035C9.53679 7.54035 8.7725 8.3989 8.82855 8.55941C9.02726 9.01034 13.664 14.2865 13.6614 14.2891L13.5493 14.391C13.5493 14.391 13.506 14.4317 13.5009 14.4368C10.2705 17.2596 5.21853 17.066 2.29129 13.9273C1.59035 13.1705 1.04533 12.2831 0.687356 11.3157C0.329386 10.3483 0.165474 9.31988 0.204982 8.28913C0.24449 7.25838 0.486643 6.2455 0.917614 5.30834C1.34858 4.37118 1.95993 3.52809 2.71675 2.82721Z" fill="url(#paint9_radial_2366_17561)"/>
<path d="M2.72282 2.8214C4.29262 1.40488 6.35535 0.660511 8.46796 0.748159C10.5806 0.835808 12.5745 1.74849 14.0216 3.29017C14.0216 3.29017 10.6282 6.68873 9.58108 7.51671C9.58108 7.51671 8.83971 8.36253 8.91105 8.53577C9.11995 9.0453 13.6548 14.2705 13.6548 14.2731L13.5427 14.375L13.4943 14.4183C10.2689 17.2258 5.21951 17.0271 2.30246 13.8909C0.890548 12.3671 0.141662 10.345 0.220492 8.26912C0.299322 6.19326 1.19941 4.23371 2.72282 2.8214Z" fill="url(#paint10_radial_2366_17561)"/>
<path d="M2.72593 2.81922C4.29635 1.40364 6.35913 0.660121 8.47155 0.748237C10.584 0.836354 12.5777 1.74908 14.0247 3.29053C14.0247 3.29053 10.7561 6.60247 9.61476 7.49669C9.61476 7.49669 8.90652 8.32468 8.9804 8.51575C9.20968 9.0584 13.6477 14.2454 13.6451 14.2454L13.533 14.3499L13.4846 14.3932C10.2695 17.1956 5.22007 16.9918 2.31066 13.8658C1.61192 13.1136 1.06834 12.2309 0.71101 11.2684C0.353676 10.3059 0.189601 9.2824 0.22817 8.25642C0.266739 7.23045 0.507194 6.22214 0.935783 5.28917C1.36437 4.3562 1.97269 3.51688 2.72593 2.81922Z" fill="url(#paint11_radial_2366_17561)"/>
<path d="M2.7319 2.81654C4.30238 1.40283 6.36424 0.660715 8.47544 0.749296C10.5866 0.837878 12.5791 1.75011 14.0256 3.2904C14.0256 3.2904 10.8869 6.49279 9.64876 7.47364C9.64876 7.47364 8.97109 8.28888 9.05261 8.49269C9.30737 9.08884 13.6384 14.2223 13.6384 14.2249L13.5263 14.3294C13.5263 14.3294 13.483 14.3676 13.4804 14.3727C10.2704 17.1751 5.2235 16.9534 2.31918 13.8377C-0.585135 10.7219 -0.439919 5.69283 2.7319 2.81654Z" fill="url(#paint12_radial_2366_17561)"/>
<path d="M2.73155 2.81101C4.30255 1.39872 6.36424 0.657971 8.47482 0.7475C10.5854 0.837028 12.577 1.74971 14.0227 3.28997C14.0227 3.28997 11.0114 6.39045 9.69171 7.44517C9.69171 7.44517 9.04206 8.24513 9.13123 8.46423C9.39874 9.10624 13.6355 14.1913 13.6355 14.1939L13.5234 14.2958L13.475 14.3391C10.2624 17.1237 5.20531 16.9071 2.32138 13.799C-0.56255 10.6909 -0.43262 5.67966 2.73155 2.81101Z" fill="url(#paint13_radial_2366_17561)"/>
<path d="M2.73946 2.80931C4.31051 1.39889 6.37128 0.659544 8.48064 0.749537C10.59 0.83953 12.5803 1.75171 14.0255 3.29082C14.0255 3.29082 11.1441 6.29704 9.71746 7.42819C9.71746 7.42819 9.09838 8.21542 9.19264 8.44725C9.48053 9.13257 13.6154 14.1693 13.6154 14.1718L13.5033 14.2737L13.4549 14.317C10.2652 17.0914 5.20813 16.8672 2.32929 13.7693C-0.54955 10.6713 -0.41962 5.66777 2.73946 2.80931Z" fill="url(#paint14_radial_2366_17561)"/>
<path d="M2.73975 2.80593C4.31099 1.3966 6.3714 0.658178 8.48014 0.748642C10.5889 0.839105 12.5785 1.75127 14.0233 3.28998C14.0233 3.28998 11.2693 6.19939 9.74832 7.40443C9.74832 7.40443 9.15981 8.16872 9.26172 8.42349C9.56743 9.14957 13.6131 14.1455 13.6131 14.148L13.5035 14.2499L13.4551 14.2933C10.2604 17.0473 5.20587 16.8282 2.33467 13.7353C-0.536526 10.6425 -0.414239 5.65675 2.73975 2.80593Z" fill="url(#paint15_radial_2366_17561)"/>
<path d="M2.74738 2.80132C4.31971 1.39464 6.37967 0.65839 8.48742 0.749783C10.5952 0.841176 12.5837 1.75297 14.0283 3.29047C14.0283 3.29047 11.4017 6.09288 9.79416 7.38199C9.79416 7.38199 9.23622 8.14628 9.34323 8.40105C9.65913 9.18063 13.6156 14.1205 13.6003 14.1231L13.4882 14.225C13.4733 14.2407 13.4571 14.2552 13.4398 14.2683C10.2629 17.0248 5.2084 16.793 2.34485 13.7078C-0.5187 10.6226 -0.396413 5.6445 2.74738 2.80132Z" fill="url(#paint16_radial_2366_17561)"/>
<path d="M2.74885 2.79867C4.32306 1.3941 6.38426 0.661072 8.49184 0.756286C10.5994 0.851501 12.5861 1.7674 14.0273 3.3082C14.0273 3.3082 11.528 6.00361 9.81602 7.3666C9.81602 7.3666 9.28865 8.11051 9.4033 8.38566C9.74723 9.21364 13.5916 14.1077 13.5891 14.1102C13.5865 14.1128 13.4948 14.1994 13.477 14.2121L13.4311 14.2554C10.2593 16.9916 5.20733 16.747 2.34887 13.6771C-0.509584 10.6072 -0.397488 5.63165 2.74885 2.79867Z" fill="url(#paint17_radial_2366_17561)"/>
<path d="M2.7535 2.79623C4.32714 1.39259 6.38738 0.660104 8.49392 0.755315C10.6005 0.850525 12.5862 1.76588 14.0268 3.30576C14.0268 3.30576 11.6575 5.91199 9.84869 7.34632C9.84869 7.34632 9.3519 8.07494 9.47164 8.36538C9.83595 9.23922 13.5835 14.0848 13.5784 14.0874L13.4689 14.1893L13.4205 14.2326C10.2563 16.9586 5.20688 16.7089 2.35606 13.6466C-0.494752 10.5844 -0.385204 5.61902 2.7535 2.79623Z" fill="url(#paint18_radial_2366_17561)"/>
<path d="M2.75522 2.78129C4.32902 1.37903 6.38856 0.64743 8.49429 0.742626C10.6 0.837821 12.5851 1.75227 14.026 3.29082C14.026 3.29082 11.7841 5.80025 9.88353 7.30845C9.88353 7.30845 9.41476 8.02179 9.54215 8.32751C9.92429 9.24721 13.5725 14.047 13.57 14.0495L13.4579 14.1514L13.4095 14.1922C10.2555 16.9258 5.20606 16.6685 2.36034 13.619C-0.485379 10.5694 -0.37583 5.60663 2.75522 2.78129Z" fill="url(#paint19_radial_2366_17561)"/>
<path d="M2.7617 2.7808C4.33493 1.37947 6.3935 0.648415 8.4982 0.743607C10.6029 0.838799 12.5871 1.7527 14.0274 3.29032C12.7608 4.72646 11.3871 6.06442 9.91803 7.29268C9.91803 7.29268 9.47983 7.99328 9.61486 8.31173C10.0148 9.27729 13.5637 14.0261 13.5612 14.0312L13.4516 14.1306L13.4032 14.1739C10.2543 16.8922 5.20743 16.6298 2.36936 13.5879C-0.468718 10.546 -0.366812 5.58321 2.7617 2.7808Z" fill="url(#paint20_radial_2366_17561)"/>
<path d="M2.76343 2.78076C4.33695 1.38005 6.39539 0.649403 8.49989 0.744586C10.6044 0.839769 12.5885 1.75325 14.0291 3.29029C12.7803 4.72251 11.417 6.05081 9.95288 7.26207C9.95288 7.26207 9.54781 7.94739 9.69812 8.28113C10.1185 9.30019 13.5705 13.9955 13.5654 13.998L13.4559 14.0999L13.4075 14.1433C10.2535 16.8565 5.20662 16.589 2.37364 13.5573C-0.459345 10.5256 -0.357439 5.58317 2.76343 2.78076Z" fill="url(#paint21_radial_2366_17561)"/>
<path d="M2.7699 2.7812C4.34344 1.38264 6.40063 0.653341 8.5037 0.748502C10.6068 0.843664 12.5897 1.75577 14.0305 3.29073C12.8013 4.72397 11.4474 6.04542 9.98483 7.23958C9.98483 7.23958 9.61033 7.91216 9.75555 8.25864C10.1937 9.3261 13.5464 13.9908 13.5439 13.9908C13.5413 13.9908 13.4547 14.0749 13.4318 14.0927L13.3859 14.1335C10.2523 16.8238 5.208 16.5385 2.38266 13.5272C-0.442681 10.5159 -0.348418 5.58361 2.7699 2.7812Z" fill="url(#paint22_radial_2366_17561)"/>
<path d="M2.77319 2.78094C4.34659 1.38315 6.40323 0.654327 8.50569 0.749483C10.6081 0.844638 12.5905 1.75626 14.0312 3.29047C12.8219 4.72631 11.4783 6.04347 10.0187 7.22403C10.0187 7.22403 9.67476 7.88132 9.82507 8.24309C10.2862 9.34622 13.5395 13.9549 13.5344 13.9575L13.4249 14.0568L13.3765 14.1001C10.2505 16.793 5.20874 16.5102 2.39105 13.4963C-0.426648 10.4825 -0.33748 5.55787 2.77319 2.78094Z" fill="url(#paint23_radial_2366_17561)"/>
<path d="M2.77339 2.78068C4.34665 1.38366 6.40273 0.655314 8.50458 0.750463C10.6064 0.845612 12.5883 1.75676 14.0289 3.29021C12.8402 4.72857 11.5058 6.03996 10.0469 7.20339C10.0469 7.20339 9.73356 7.8454 9.89151 8.22245C10.3705 9.37144 13.5245 13.9292 13.5219 13.9343L13.4098 14.0336L13.3614 14.0769C10.2482 16.7571 5.20639 16.4692 2.40398 13.4655C-0.398431 10.4618 -0.329644 5.54488 2.77339 2.78068Z" fill="url(#paint24_radial_2366_17561)"/>
<path d="M2.77907 2.78114C4.35205 1.38566 6.40703 0.658264 8.50765 0.7534C10.6083 0.848537 12.5891 1.75872 14.0295 3.29067C12.8631 4.72953 11.5404 6.03429 10.0857 7.18092C10.0857 7.18092 9.80038 7.81019 9.96598 8.19998C10.4755 9.39483 13.5327 13.9067 13.5149 13.9118L13.4053 14.0112L13.3569 14.0519C10.2462 16.7244 5.20698 16.4289 2.40457 13.4354C-0.397846 10.4419 -0.321417 5.5326 2.77907 2.78114Z" fill="url(#paint25_radial_2366_17561)"/>
<path d="M2.78157 2.78087C4.3547 1.38676 6.40899 0.660238 8.5088 0.75536C10.6086 0.850481 12.5888 1.75977 14.0294 3.2904C12.8865 4.73237 11.5734 6.0309 10.1188 7.15772C10.1188 7.15772 9.86403 7.77171 10.0347 8.17678C10.5443 9.41749 13.5097 13.881 13.5046 13.8835C13.4995 13.8861 13.4205 13.9625 13.3951 13.9829L13.3467 14.0262C10.2462 16.691 5.20693 16.3904 2.40452 13.4046C-0.397891 10.4187 -0.311271 5.51959 2.78157 2.78087Z" fill="url(#paint26_radial_2366_17561)"/>
<path d="M2.78726 2.76586C4.36218 1.37445 6.41705 0.651061 8.51628 0.749031C10.6155 0.847002 12.5941 1.75863 14.0326 3.29067C14.0326 3.29067 12.8148 5.02307 10.1525 7.13507C10.1525 7.13507 9.9283 7.73631 10.1066 8.15413C10.6416 9.42795 13.5001 13.8583 13.4976 13.8608L13.3855 13.9602L13.3396 14.0035C10.2442 16.6582 5.20752 16.3499 2.40511 13.3742C-0.397295 10.3986 -0.303032 5.50712 2.78726 2.76586Z" fill="url(#paint27_radial_2366_17561)"/>
<path d="M2.78902 2.76035C4.36472 1.37096 6.41928 0.649326 8.51772 0.748233C10.6162 0.84714 12.5937 1.75882 14.0318 3.29026C14.0318 3.29026 12.9439 4.91566 10.1848 7.11173C10.082 7.44363 10.082 7.79888 10.1848 8.13078C10.7402 9.4632 13.4968 13.8299 13.4968 13.835L13.3872 13.9343L13.3388 13.9751C10.2409 16.6246 5.20673 16.3113 2.42216 13.3458C-0.362419 10.3804 -0.293633 5.49652 2.78902 2.76035Z" fill="url(#paint28_radial_2366_17561)"/>
<path d="M2.79301 2.75775C4.3682 1.369 6.42211 0.647958 8.51972 0.747345C10.6173 0.846733 12.5939 1.75875 14.0307 3.29021C14.0307 3.29021 13.0702 4.8188 10.2092 7.07856C10.1192 7.41373 10.1289 7.76789 10.2372 8.09762C10.8105 9.49373 13.4804 13.8145 13.4753 13.8196L13.3657 13.919L13.3199 13.9597C10.2398 16.5915 5.20564 16.2832 2.42615 13.3152C-0.353328 10.3472 -0.284541 5.48373 2.79301 2.75775Z" fill="url(#paint29_radial_2366_17561)"/>
<path d="M2.79845 2.75537C4.37381 1.36771 6.42736 0.647579 8.52435 0.747436C10.6214 0.847293 12.5972 1.7593 14.0336 3.29037C14.0336 3.29037 13.203 4.72979 10.2529 7.06853C10.1819 7.40775 10.2039 7.75984 10.3165 8.08759C10.9101 9.51172 13.4756 13.7841 13.4705 13.7892L13.361 13.886L13.3126 13.9293C10.2401 16.5585 5.20852 16.2299 2.43668 13.2848C-0.378466 10.2989 -0.274012 5.47116 2.79845 2.75537Z" fill="url(#paint30_radial_2366_17561)"/>
<path d="M2.80321 2.75059C4.37922 1.36571 6.4319 0.647813 8.5275 0.748599C10.6231 0.849385 12.5974 1.76096 14.0332 3.29069C14.0332 3.29069 13.3301 4.62311 10.2857 7.03573C10.2331 7.37857 10.2682 7.72914 10.3876 8.05479C10.999 9.52478 13.4651 13.7513 13.46 13.7539L13.3505 13.8532L13.3021 13.894C10.2449 16.5053 5.21329 16.1869 2.44145 13.2367C-0.33039 10.2865 -0.264152 5.45874 2.80321 2.75059Z" fill="url(#paint31_radial_2366_17561)"/>
<path d="M2.80574 2.74747C4.38234 1.36352 6.43508 0.646461 8.53049 0.747714C10.6259 0.848966 12.5999 1.76061 14.0358 3.29012C14.0358 3.29012 13.46 4.52318 10.3213 7.01223C10.2869 7.358 10.334 7.70701 10.4589 8.03129C11.0881 9.56752 13.4549 13.7355 13.4498 13.7482L13.3402 13.8476L13.2944 13.8883C10.2372 16.4895 5.20817 16.1506 2.44907 13.2259C-0.353338 10.2554 -0.25398 5.44543 2.80574 2.74747Z" fill="url(#paint32_radial_2366_17561)"/>
<path d="M2.80967 2.74486C4.38602 1.36216 6.43799 0.646084 8.53237 0.747808C10.6267 0.849532 12.5997 1.76109 14.0346 3.29006C14.0346 3.29006 13.5862 4.4365 10.3532 6.99943C10.3388 7.34751 10.3978 7.69473 10.5265 8.01849C11.1761 9.59038 13.4461 13.7201 13.441 13.7354L13.3314 13.8322L13.283 13.873C10.2335 16.4563 5.207 16.1124 2.453 13.1928C-0.341773 10.2324 -0.247509 5.43263 2.80967 2.74486Z" fill="url(#paint33_radial_2366_17561)"/>
<path d="M2.81396 2.74034C4.39109 1.35965 6.44274 0.645334 8.53633 0.747994C10.6299 0.850653 12.6018 1.76227 14.0363 3.29064C14.0363 3.29064 13.7179 4.33772 10.3881 6.97708C10.3936 7.33119 10.4653 7.68115 10.5996 8.00887C11.2696 9.61644 13.4376 13.6978 13.4325 13.7029L13.323 13.7997L13.2771 13.8404C10.2352 16.4237 5.20874 16.0722 2.46238 13.1628C-0.32729 10.2126 -0.235575 5.42047 2.81396 2.74034Z" fill="url(#paint34_radial_2366_17561)"/>
<path d="M2.81752 2.73728C4.39554 1.36202 6.44537 0.652257 8.53593 0.75726C10.6265 0.862263 12.5949 1.77385 14.0272 3.30031C14.0272 3.30031 13.8361 4.24039 10.4121 6.95363C10.4416 7.30891 10.5276 7.65721 10.6668 7.98543C11.3572 9.64139 13.4285 13.6743 13.4234 13.6794L13.3138 13.7762C13.2966 13.7884 13.2804 13.802 13.2654 13.817C10.2312 16.3901 5.20722 16.0283 2.4685 13.1317C-0.316078 10.1891 -0.229458 5.40976 2.81752 2.73728Z" fill="url(#paint35_radial_2366_17561)"/>
<path d="M2.81827 2.73517C4.39633 1.35962 6.44649 0.649907 8.53725 0.755396C10.628 0.860884 12.5963 1.77335 14.0279 3.30075C14.0279 3.30075 13.9668 4.14402 10.4459 6.93114C10.4959 7.28681 10.5918 7.63449 10.7313 7.96549C11.4446 9.65967 13.4165 13.6493 13.4114 13.6544L13.3018 13.7512C13.2865 13.7512 13.2687 13.7818 13.2534 13.792C10.2268 16.3574 5.20541 15.9931 2.47179 13.1015C-0.305144 10.1692 -0.221072 5.39746 2.81827 2.73517Z" fill="url(#paint36_radial_2366_17561)"/>
<path d="M2.82581 2.72993C4.40506 1.35623 6.45532 0.648191 8.54572 0.754611C10.6361 0.861032 12.6039 1.77363 14.0354 3.3006C14.0354 3.3006 14.1017 4.05471 10.4866 6.91062C10.5606 7.26456 10.6699 7.61021 10.8127 7.94241C11.5388 9.6901 13.4138 13.6262 13.4062 13.6313C13.3985 13.6364 13.3323 13.7001 13.2966 13.7281L13.2508 13.7689C10.2318 16.3293 5.20786 15.9522 2.48188 13.0708C-0.292501 10.1461 -0.208429 5.38458 2.82581 2.72993Z" fill="url(#paint37_radial_2366_17561)"/>
<path d="M2.82748 2.72765C4.40709 1.35399 6.45786 0.646438 8.54846 0.753819C10.6391 0.8612 12.6065 1.77514 14.0371 3.30342C14.0371 3.30342 14.2307 3.94798 10.5214 6.88796C10.6166 7.24045 10.7358 7.58603 10.878 7.92231C11.6245 9.70566 13.4002 13.6036 13.3951 13.6087L13.2856 13.7055L13.2371 13.7462C10.2284 16.2837 5.20698 15.9117 2.48609 13.0431C-0.280647 10.1235 -0.20167 5.37211 2.82748 2.72765Z" fill="url(#paint38_radial_2366_17561)"/>
<path d="M2.83404 2.72456C4.41398 1.35121 6.46494 0.644104 8.55555 0.75196C10.6462 0.859816 12.6135 1.77423 14.0437 3.30287C14.0437 3.30287 14.3596 3.84807 10.5585 6.85684C10.5585 6.85684 10.6986 7.28484 10.9534 7.89118C11.7177 9.73058 13.394 13.5724 13.3889 13.5775L13.2794 13.6743L13.2335 13.7125C10.2273 16.2576 5.20845 15.8729 2.4952 13.0119C-0.266445 10.1 -0.190016 5.35882 2.83404 2.72456Z" fill="url(#paint39_radial_2366_17561)"/>
<path d="M13.3763 13.5625C10.4006 16.2376 5.25695 15.8834 2.5004 12.9715C-0.256148 10.0595 -0.182266 5.32855 2.83669 2.70957C4.41754 1.33747 6.46875 0.631637 8.55918 0.740435C10.6496 0.849232 12.6165 1.76418 14.0463 3.29298C14.0463 3.29298 14.4973 3.74136 10.5968 6.83166C10.5892 6.84185 13.3865 13.5549 13.3763 13.5625Z" fill="url(#paint40_radial_2366_17561)"/>
<path d="M10.4738 6.92773C9.25351 7.92896 7.75295 9.10852 6.00781 10.4307C7.30423 11.8327 8.81198 13.0233 10.4764 13.9592C11.9056 14.7235 13.024 14.8662 13.5718 14.3821C14.1195 13.8981 14.0533 12.7822 13.4164 11.325C12.6623 9.71957 11.6703 8.23714 10.4738 6.92773Z" fill="url(#paint41_linear_2366_17561)"/>
<path d="M10.5844 6.82812L9.97297 7.33765C11.0925 8.56834 12.0232 9.95836 12.7346 11.4623C13.3588 12.8992 13.3435 13.6201 13.1422 13.801C12.941 13.9819 12.0722 14.0278 10.6838 13.2915C9.14569 12.4193 7.75462 11.3102 6.56168 10.005L5.87891 10.5146L6.03941 10.67C8.93099 13.6584 12.0595 15.3602 13.4352 14.7411C13.476 14.7207 13.5167 14.7003 13.555 14.6774H13.5702C13.6235 14.6444 13.6737 14.6069 13.7206 14.5653C13.7701 14.5205 13.8154 14.471 13.8556 14.4176C14.7549 13.238 13.3894 10.0611 10.6685 6.94786L10.5844 6.82812Z" fill="#84EEB1"/>
</g>
<path d="M22.8973 14.9031C21.4182 14.9031 20.2511 14.3658 19.396 13.2911C18.5408 12.2049 18.1133 10.6796 18.1133 8.71512C18.1133 6.79689 18.5351 5.28311 19.3786 4.17377C20.2337 3.06443 21.4586 2.50977 23.0533 2.50977C23.608 2.50977 24.1049 2.59065 24.544 2.75243C24.9831 2.90266 25.3413 3.07599 25.6186 3.27244V4.95378C25.3066 4.75733 24.9369 4.57244 24.5093 4.39911C24.0818 4.22577 23.6311 4.13911 23.1573 4.13911C22.1404 4.13911 21.4009 4.51466 20.9386 5.26578C20.4764 6.01689 20.2453 7.16667 20.2453 8.71512C20.2453 10.2174 20.4764 11.3556 20.9386 12.1298C21.4009 12.8925 22.1057 13.2738 23.0533 13.2738C23.608 13.2738 24.0875 13.1929 24.492 13.0311C24.8964 12.8578 25.272 12.644 25.6186 12.3898V14.0711C25.3529 14.256 24.9946 14.4409 24.544 14.6258C24.0933 14.8107 23.5444 14.9031 22.8973 14.9031Z" fill="black"/>
<path d="M26.9235 6.01111H33.7182V14.7298H31.6555V7.64045H28.9862V14.7298H26.9235V6.01111Z" fill="black"/>
<path d="M34.7615 12.9445C34.7615 12.9445 34.8019 12.9734 34.8828 13.0311C34.9637 13.0774 35.0793 13.1005 35.2295 13.1005C35.5646 13.1005 35.7841 12.9271 35.8881 12.5805C35.9921 12.2338 36.0615 11.5982 36.0961 10.6738L36.2695 6.01111H42.1802V14.7298H40.1175V7.64045H38.0202L37.8988 10.7605C37.8526 12.2049 37.6735 13.2565 37.3615 13.9151C37.0495 14.5738 36.4544 14.9031 35.5761 14.9031C35.3335 14.9031 35.137 14.8743 34.9868 14.8165C34.8366 14.7587 34.7615 14.7298 34.7615 14.7298V12.9445Z" fill="black"/>
<path d="M43.9184 6.01111H45.9291V11.4018L49.1184 6.01111H50.9037V14.7298H48.8931V9.33913L45.7037 14.7298H43.9184V6.01111Z" fill="black"/>
<path d="M59.0319 7.64045H56.6052V14.7298H54.5425V7.64045H52.1159V6.01111H59.0319V7.64045Z" fill="black"/>
<defs>
<radialGradient id="paint0_radial_2366_17561" cx="0" cy="0" r="1" gradientUnits="userSpaceOnUse" gradientTransform="translate(10.1671 1.63564) rotate(-2.29061) scale(36.6772 27.1417)">
<stop stop-color="#03BA50"/>
<stop offset="0.8" stop-color="#01B64E"/>
</radialGradient>
<radialGradient id="paint1_radial_2366_17561" cx="0" cy="0" r="1" gradientUnits="userSpaceOnUse" gradientTransform="translate(10.1616 1.63337) rotate(-2.29061) scale(36.6007 27.0851)">
<stop stop-color="#04BC50"/>
<stop offset="0.8" stop-color="#01B34D"/>
</radialGradient>
<radialGradient id="paint2_radial_2366_17561" cx="0" cy="0" r="1" gradientUnits="userSpaceOnUse" gradientTransform="translate(10.156 1.64009) rotate(-2.29061) scale(36.5242 27.0285)">
<stop stop-color="#06BD51"/>
<stop offset="0.72" stop-color="#02B24C"/>
<stop offset="0.8" stop-color="#01B04B"/>
</radialGradient>
<radialGradient id="paint3_radial_2366_17561" cx="0" cy="0" r="1" gradientUnits="userSpaceOnUse" gradientTransform="translate(10.1402 1.65173) rotate(-2.29061) scale(36.4477 26.9719)">
<stop stop-color="#08BF52"/>
<stop offset="0.56" stop-color="#04B44D"/>
<stop offset="0.8" stop-color="#01AD4A"/>
</radialGradient>
<radialGradient id="paint4_radial_2366_17561" cx="0" cy="0" r="1" gradientUnits="userSpaceOnUse" gradientTransform="translate(10.1275 1.66206) rotate(-2.29061) scale(36.3712 26.9153)">
<stop stop-color="#0AC053"/>
<stop offset="0.48" stop-color="#05B54E"/>
<stop offset="0.8" stop-color="#01AA49"/>
</radialGradient>
<radialGradient id="paint5_radial_2366_17561" cx="0" cy="0" r="1" gradientUnits="userSpaceOnUse" gradientTransform="translate(10.1108 1.68972) rotate(-1.71836) scale(36.2795 26.8553)">
<stop stop-color="#0BC253"/>
<stop offset="0.42" stop-color="#07B74E"/>
<stop offset="0.8" stop-color="#01A848"/>
</radialGradient>
<radialGradient id="paint6_radial_2366_17561" cx="0" cy="0" r="1" gradientUnits="userSpaceOnUse" gradientTransform="translate(10.0915 1.6968) rotate(-1.71836) scale(36.203 26.7987)">
<stop stop-color="#0DC354"/>
<stop offset="0.37" stop-color="#08B84F"/>
<stop offset="0.8" stop-color="#01A546"/>
</radialGradient>
<radialGradient id="paint7_radial_2366_17561" cx="0" cy="0" r="1" gradientUnits="userSpaceOnUse" gradientTransform="translate(10.3585 1.70444) rotate(-1.71836) scale(36.1265 26.7313)">
<stop stop-color="#0FC555"/>
<stop offset="0.33" stop-color="#0ABA50"/>
<stop offset="0.8" stop-color="#01A245"/>
</radialGradient>
<radialGradient id="paint8_radial_2366_17561" cx="0" cy="0" r="1" gradientUnits="userSpaceOnUse" gradientTransform="translate(10.3323 1.71722) rotate(-1.70136) scale(36.4103 26.6747)">
<stop stop-color="#11C656"/>
<stop offset="0.3" stop-color="#0CBB51"/>
<stop offset="0.8" stop-color="#019F44"/>
</radialGradient>
<radialGradient id="paint9_radial_2366_17561" cx="0" cy="0" r="1" gradientUnits="userSpaceOnUse" gradientTransform="translate(10.3219 1.73042) rotate(-1.70135) scale(36.333 26.6181)">
<stop stop-color="#12C856"/>
<stop offset="0.28" stop-color="#0EBD51"/>
<stop offset="0.77" stop-color="#029E44"/>
<stop offset="0.8" stop-color="#019C43"/>
</radialGradient>
<radialGradient id="paint10_radial_2366_17561" cx="0" cy="0" r="1" gradientUnits="userSpaceOnUse" gradientTransform="translate(10.3139 1.74737) rotate(-1.70135) scale(36.2533 26.5597)">
<stop stop-color="#14C957"/>
<stop offset="0.26" stop-color="#0FBE52"/>
<stop offset="0.72" stop-color="#049F44"/>
<stop offset="0.8" stop-color="#019941"/>
</radialGradient>
<radialGradient id="paint11_radial_2366_17561" cx="0" cy="0" r="1" gradientUnits="userSpaceOnUse" gradientTransform="translate(10.2979 1.76938) rotate(-1.70136) scale(36.176 26.5031)">
<stop stop-color="#16CB58"/>
<stop offset="0.24" stop-color="#11C053"/>
<stop offset="0.66" stop-color="#06A145"/>
<stop offset="0.8" stop-color="#019640"/>
</radialGradient>
<radialGradient id="paint12_radial_2366_17561" cx="0" cy="0" r="1" gradientUnits="userSpaceOnUse" gradientTransform="translate(10.2797 1.79287) rotate(-1.70135) scale(36.0988 26.4465)">
<stop stop-color="#18CC59"/>
<stop offset="0.23" stop-color="#13C154"/>
<stop offset="0.62" stop-color="#07A246"/>
<stop offset="0.8" stop-color="#01933F"/>
</radialGradient>
<radialGradient id="paint13_radial_2366_17561" cx="0" cy="0" r="1" gradientUnits="userSpaceOnUse" gradientTransform="translate(10.2577 1.82064) rotate(-1.70135) scale(36.019 26.388)">
<stop stop-color="#19CD59"/>
<stop offset="0.21" stop-color="#15C254"/>
<stop offset="0.59" stop-color="#09A347"/>
<stop offset="0.8" stop-color="#01903E"/>
</radialGradient>
<radialGradient id="paint14_radial_2366_17561" cx="0" cy="0" r="1" gradientUnits="userSpaceOnUse" gradientTransform="translate(10.2364 1.85173) rotate(-1.70135) scale(35.9418 26.3315)">
<stop stop-color="#1BCF5A"/>
<stop offset="0.2" stop-color="#17C455"/>
<stop offset="0.56" stop-color="#0BA547"/>
<stop offset="0.8" stop-color="#018D3C"/>
</radialGradient>
<radialGradient id="paint15_radial_2366_17561" cx="0" cy="0" r="1" gradientUnits="userSpaceOnUse" gradientTransform="translate(10.2075 1.7402) rotate(-1.13442) scale(35.8558 26.2743)">
<stop stop-color="#1DD05B"/>
<stop offset="0.19" stop-color="#18C556"/>
<stop offset="0.54" stop-color="#0CA648"/>
<stop offset="0.8" stop-color="#018B3B"/>
</radialGradient>
<radialGradient id="paint16_radial_2366_17561" cx="0" cy="0" r="1" gradientUnits="userSpaceOnUse" gradientTransform="translate(10.1808 1.76367) rotate(-1.13442) scale(35.7759 26.2159)">
<stop stop-color="#1ED25B"/>
<stop offset="0.18" stop-color="#1AC756"/>
<stop offset="0.51" stop-color="#0EA848"/>
<stop offset="0.8" stop-color="#01883A"/>
</radialGradient>
<radialGradient id="paint17_radial_2366_17561" cx="0" cy="0" r="1" gradientUnits="userSpaceOnUse" gradientTransform="translate(10.1505 1.78593) rotate(-1.13442) scale(35.6987 26.1593)">
<stop stop-color="#20D35C"/>
<stop offset="0.18" stop-color="#1BC857"/>
<stop offset="0.49" stop-color="#0FA949"/>
<stop offset="0.8" stop-color="#018539"/>
</radialGradient>
<radialGradient id="paint18_radial_2366_17561" cx="0" cy="0" r="1" gradientUnits="userSpaceOnUse" gradientTransform="translate(10.1158 1.81742) rotate(-1.13442) scale(35.6216 26.1027)">
<stop stop-color="#22D55D"/>
<stop offset="0.17" stop-color="#1DCA58"/>
<stop offset="0.47" stop-color="#11AB4A"/>
<stop offset="0.8" stop-color="#018237"/>
</radialGradient>
<radialGradient id="paint19_radial_2366_17561" cx="0" cy="0" r="1" gradientUnits="userSpaceOnUse" gradientTransform="translate(10.0755 1.84671) rotate(-1.13442) scale(35.5418 26.0442)">
<stop stop-color="#24D65E"/>
<stop offset="0.16" stop-color="#1FCB59"/>
<stop offset="0.45" stop-color="#13AC4B"/>
<stop offset="0.8" stop-color="#017F36"/>
</radialGradient>
<radialGradient id="paint20_radial_2366_17561" cx="0" cy="0" r="1" gradientUnits="userSpaceOnUse" gradientTransform="translate(10.035 1.88158) rotate(-1.13442) scale(35.4646 25.9877)">
<stop stop-color="#25D85E"/>
<stop offset="0.15" stop-color="#20CD59"/>
<stop offset="0.43" stop-color="#14AE4B"/>
<stop offset="0.79" stop-color="#017D36"/>
<stop offset="0.8" stop-color="#007C35"/>
</radialGradient>
<radialGradient id="paint21_radial_2366_17561" cx="0" cy="0" r="1" gradientUnits="userSpaceOnUse" gradientTransform="translate(10.8053 1.92144) rotate(-1.13442) scale(35.3874 25.9241)">
<stop stop-color="#27D95F"/>
<stop offset="0.15" stop-color="#22CE5A"/>
<stop offset="0.42" stop-color="#16AF4C"/>
<stop offset="0.77" stop-color="#027E36"/>
<stop offset="0.8" stop-color="#007934"/>
</radialGradient>
<radialGradient id="paint22_radial_2366_17561" cx="0" cy="0" r="1" gradientUnits="userSpaceOnUse" gradientTransform="translate(10.5431 1.96305) rotate(-1.1233) scale(35.657 25.8657)">
<stop stop-color="#29DB60"/>
<stop offset="0.14" stop-color="#24D05B"/>
<stop offset="0.4" stop-color="#18B14D"/>
<stop offset="0.74" stop-color="#048037"/>
<stop offset="0.8" stop-color="#007632"/>
</radialGradient>
<radialGradient id="paint23_radial_2366_17561" cx="0" cy="0" r="1" gradientUnits="userSpaceOnUse" gradientTransform="translate(10.5128 2.00854) rotate(-1.1233) scale(35.579 25.8092)">
<stop stop-color="#2BDC61"/>
<stop offset="0.14" stop-color="#26D15C"/>
<stop offset="0.39" stop-color="#1AB24E"/>
<stop offset="0.71" stop-color="#068138"/>
<stop offset="0.8" stop-color="#007331"/>
</radialGradient>
<radialGradient id="paint24_radial_2366_17561" cx="0" cy="0" r="1" gradientUnits="userSpaceOnUse" gradientTransform="translate(10.4793 2.05853) rotate(-1.1233) scale(35.4985 25.7507)">
<stop stop-color="#2CDE61"/>
<stop offset="0.13" stop-color="#27D35C"/>
<stop offset="0.37" stop-color="#1BB44E"/>
<stop offset="0.69" stop-color="#088339"/>
<stop offset="0.8" stop-color="#007030"/>
</radialGradient>
<radialGradient id="paint25_radial_2366_17561" cx="0" cy="0" r="1" gradientUnits="userSpaceOnUse" gradientTransform="translate(10.4461 1.80392) rotate(-0.561705) scale(35.4154 25.6944)">
<stop stop-color="#2EDF62"/>
<stop offset="0.13" stop-color="#29D45D"/>
<stop offset="0.37" stop-color="#1DB54F"/>
<stop offset="0.67" stop-color="#098439"/>
<stop offset="0.8" stop-color="#006E2F"/>
</radialGradient>
<radialGradient id="paint26_radial_2366_17561" cx="0" cy="0" r="1" gradientUnits="userSpaceOnUse" gradientTransform="translate(10.4071 1.84351) rotate(-0.561705) scale(35.3375 25.6379)">
<stop stop-color="#30E163"/>
<stop offset="0.13" stop-color="#2BD65E"/>
<stop offset="0.35" stop-color="#1FB750"/>
<stop offset="0.65" stop-color="#0B8639"/>
<stop offset="0.8" stop-color="#006B2D"/>
</radialGradient>
<radialGradient id="paint27_radial_2366_17561" cx="0" cy="0" r="1" gradientUnits="userSpaceOnUse" gradientTransform="translate(10.3687 1.88812) rotate(-0.561706) scale(35.2568 25.5794)">
<stop stop-color="#31E263"/>
<stop offset="0.12" stop-color="#2CD75E"/>
<stop offset="0.34" stop-color="#20B850"/>
<stop offset="0.63" stop-color="#0D873A"/>
<stop offset="0.8" stop-color="#00682C"/>
</radialGradient>
<radialGradient id="paint28_radial_2366_17561" cx="0" cy="0" r="1" gradientUnits="userSpaceOnUse" gradientTransform="translate(10.3238 1.93397) rotate(-0.561705) scale(35.1789 25.5229)">
<stop stop-color="#33E364"/>
<stop offset="0.12" stop-color="#2ED85F"/>
<stop offset="0.34" stop-color="#22B951"/>
<stop offset="0.62" stop-color="#0E883B"/>
<stop offset="0.8" stop-color="#00652B"/>
</radialGradient>
<radialGradient id="paint29_radial_2366_17561" cx="0" cy="0" r="1" gradientUnits="userSpaceOnUse" gradientTransform="translate(10.2759 1.98401) rotate(-0.561705) scale(35.0984 25.4644)">
<stop stop-color="#35E565"/>
<stop offset="0.12" stop-color="#30DA60"/>
<stop offset="0.33" stop-color="#24BB52"/>
<stop offset="0.6" stop-color="#108A3C"/>
<stop offset="0.8" stop-color="#00622A"/>
</radialGradient>
<radialGradient id="paint30_radial_2366_17561" cx="0" cy="0" r="1" gradientUnits="userSpaceOnUse" gradientTransform="translate(10.232 2.03617) rotate(-0.561705) scale(35.0204 25.4079)">
<stop stop-color="#37E666"/>
<stop offset="0.11" stop-color="#32DB61"/>
<stop offset="0.32" stop-color="#26BC53"/>
<stop offset="0.59" stop-color="#128B3C"/>
<stop offset="0.8" stop-color="#005F28"/>
</radialGradient>
<radialGradient id="paint31_radial_2366_17561" cx="0" cy="0" r="1" gradientUnits="userSpaceOnUse" gradientTransform="translate(10.1797 2.09299) rotate(-0.561705) scale(34.9398 25.3494)">
<stop stop-color="#38E866"/>
<stop offset="0.11" stop-color="#33DD61"/>
<stop offset="0.31" stop-color="#27BE53"/>
<stop offset="0.57" stop-color="#148D3D"/>
<stop offset="0.8" stop-color="#005C27"/>
</radialGradient>
<radialGradient id="paint32_radial_2366_17561" cx="0" cy="0" r="1" gradientUnits="userSpaceOnUse" gradientTransform="translate(10.1251 2.15272) rotate(-0.561706) scale(34.8619 25.2929)">
<stop stop-color="#3AE967"/>
<stop offset="0.11" stop-color="#35DE62"/>
<stop offset="0.3" stop-color="#29BF54"/>
<stop offset="0.56" stop-color="#158E3E"/>
<stop offset="0.8" stop-color="#005926"/>
</radialGradient>
<radialGradient id="paint33_radial_2366_17561" cx="0" cy="0" r="1" gradientUnits="userSpaceOnUse" gradientTransform="translate(10.0694 2.2149) rotate(-0.561705) scale(34.7839 25.2363)">
<stop stop-color="#3CEB68"/>
<stop offset="0.11" stop-color="#37E063"/>
<stop offset="0.29" stop-color="#2BC155"/>
<stop offset="0.54" stop-color="#17903F"/>
<stop offset="0.8" stop-color="#005625"/>
</radialGradient>
<radialGradient id="paint34_radial_2366_17561" cx="0" cy="0" r="1" gradientUnits="userSpaceOnUse" gradientTransform="translate(10.0087 2.28223) rotate(-0.561705) scale(34.7033 25.1778)">
<stop stop-color="#3EEC69"/>
<stop offset="0.1" stop-color="#39E164"/>
<stop offset="0.29" stop-color="#2DC256"/>
<stop offset="0.53" stop-color="#19913F"/>
<stop offset="0.8" stop-color="#005323"/>
</radialGradient>
<radialGradient id="paint35_radial_2366_17561" cx="0" cy="0" r="1" gradientUnits="userSpaceOnUse" gradientTransform="translate(9.94484 1.8853) scale(34.6237 25.1192)">
<stop stop-color="#3FEE69"/>
<stop offset="0.1" stop-color="#3AE364"/>
<stop offset="0.28" stop-color="#2EC456"/>
<stop offset="0.52" stop-color="#1A9340"/>
<stop offset="0.8" stop-color="#005122"/>
</radialGradient>
<radialGradient id="paint36_radial_2366_17561" cx="0" cy="0" r="1" gradientUnits="userSpaceOnUse" gradientTransform="translate(10.7604 1.94148) scale(34.8818 25.0607)">
<stop stop-color="#41EF6A"/>
<stop offset="0.1" stop-color="#3CE465"/>
<stop offset="0.28" stop-color="#30C557"/>
<stop offset="0.51" stop-color="#1C9441"/>
<stop offset="0.79" stop-color="#015022"/>
<stop offset="0.8" stop-color="#004E21"/>
</radialGradient>
<radialGradient id="paint37_radial_2366_17561" cx="0" cy="0" r="1" gradientUnits="userSpaceOnUse" gradientTransform="translate(10.7125 2.00151) scale(34.8057 25.0061)">
<stop stop-color="#43F16B"/>
<stop offset="0.1" stop-color="#3EE666"/>
<stop offset="0.27" stop-color="#32C758"/>
<stop offset="0.5" stop-color="#1E9642"/>
<stop offset="0.77" stop-color="#035223"/>
<stop offset="0.8" stop-color="#004B20"/>
</radialGradient>
<radialGradient id="paint38_radial_2366_17561" cx="0" cy="0" r="1" gradientUnits="userSpaceOnUse" gradientTransform="translate(10.6638 2.06572) scale(34.727 24.9495)">
<stop stop-color="#45F26C"/>
<stop offset="0.1" stop-color="#40E767"/>
<stop offset="0.27" stop-color="#34C859"/>
<stop offset="0.49" stop-color="#209742"/>
<stop offset="0.76" stop-color="#055323"/>
<stop offset="0.8" stop-color="#00481E"/>
</radialGradient>
<radialGradient id="paint39_radial_2366_17561" cx="0" cy="0" r="1" gradientUnits="userSpaceOnUse" gradientTransform="translate(10.6148 2.13355) scale(34.6457 24.891)">
<stop stop-color="#46F46C"/>
<stop offset="0.09" stop-color="#41E967"/>
<stop offset="0.26" stop-color="#35CA59"/>
<stop offset="0.48" stop-color="#229943"/>
<stop offset="0.74" stop-color="#065524"/>
<stop offset="0.8" stop-color="#00451D"/>
</radialGradient>
<radialGradient id="paint40_radial_2366_17561" cx="0" cy="0" r="1" gradientUnits="userSpaceOnUse" gradientTransform="translate(10.5669 2.206) scale(34.5643 24.8326)">
<stop stop-color="#48F56D"/>
<stop offset="0.09" stop-color="#43EA68"/>
<stop offset="0.25" stop-color="#37CB5A"/>
<stop offset="0.47" stop-color="#239A44"/>
<stop offset="0.73" stop-color="#085625"/>
<stop offset="0.8" stop-color="#00421C"/>
</radialGradient>
<linearGradient id="paint41_linear_2366_17561" x1="11.126" y1="20.0609" x2="8.14528" y2="-1.3139" gradientUnits="userSpaceOnUse">
<stop offset="0.1" stop-color="#FF8475"/>
<stop offset="0.37" stop-color="#E84E43"/>
<stop offset="0.6" stop-color="#D6261F"/>
<stop offset="0.79" stop-color="#CC0E08"/>
<stop offset="0.9" stop-color="#C80500"/>
</linearGradient>
<clipPath id="clip0_2366_17561">
<rect width="16" height="16" fill="white" transform="translate(0.113281 0.729492)"/>
</clipPath>
</defs>
</svg>
